<svg width="28" height="27" viewBox="0 0 28 27" fill="none" xmlns="http://www.w3.org/2000/svg">
<path d="M27.0615 16.797C25.2652 24.0042 17.9656 28.4051 10.7452 26.6077C3.53807 24.8059 -0.855791 17.5063 0.940496 10.2991C2.73678 3.09201 10.032 -1.30892 17.2348 0.488457C24.4595 2.26381 28.8534 9.58548 27.0615 16.797Z" fill="#AAD5D1"/>
<path d="M20.3744 11.7797C20.6163 9.98484 19.2526 9.04781 17.3829 8.41432L17.9636 5.98596L16.4855 5.62963L15.9224 8.0052C15.5309 7.91281 15.1349 7.82043 14.7434 7.74124L15.3065 5.36567L13.8108 5.00934L13.2301 7.4377C12.9133 7.36291 12.5922 7.30572 12.2755 7.23094L10.2386 6.74262L9.8647 8.31314C9.8647 8.31314 10.9689 8.5551 10.9293 8.57709C11.5276 8.72667 11.642 9.11819 11.62 9.41734L10.9645 12.1844C11.0041 12.202 11.0569 12.202 11.1141 12.2416C11.0569 12.224 11.0217 12.224 10.9645 12.2064L10.0671 16.0777C9.99227 16.2625 9.80311 16.5265 9.39398 16.4341C9.41158 16.4517 8.30738 16.1701 8.30738 16.1701L7.60791 17.8726L9.53476 18.3213C9.89109 18.4137 10.2474 18.4885 10.5818 18.5853L10.0011 21.0356L11.4792 21.392L12.0599 18.9636C12.4734 19.0736 12.8649 19.1704 13.2389 19.2628L12.6582 21.6735L14.1363 22.0299L14.717 19.5795C17.2421 20.0282 19.1294 19.8215 19.8949 17.5207C20.5107 15.6862 19.8377 14.6392 18.4915 13.9485C19.4769 13.7242 20.1896 13.0863 20.3744 11.7797ZM17.0486 16.544C16.6175 18.3785 13.516 17.4239 12.5218 17.1819L13.2873 13.9265C14.2991 14.1729 17.4973 14.6216 17.0486 16.544ZM17.4577 11.7797C17.0662 13.4426 14.4839 12.642 13.6436 12.4352L14.3563 9.48333C15.1789 9.68569 17.8712 10.042 17.4577 11.7797Z" fill="white"/>
</svg>
