<svg width="28" height="27" viewBox="0 0 28 27" fill="none" xmlns="http://www.w3.org/2000/svg">
<path d="M27.0615 16.797C25.2652 24.0042 17.9656 28.4051 10.7452 26.6077C3.53807 24.8059 -0.855791 17.5063 0.940496 10.2991C2.73678 3.09201 10.032 -1.30892 17.2348 0.488457C24.4595 2.26381 28.8534 9.58548 27.0615 16.797Z" fill="#AAD5D1"/>
<path d="M19.1496 12.8903L19.1392 10.6496H19.1473L17.2441 9.52922L13.9828 11.4522L10.7412 9.52922L8.83917 10.6496V12.8903L12.1005 14.8039V18.6405L13.9944 19.7504L15.8883 18.6405V14.8039L19.1496 12.8903Z" fill="white"/>
<path d="M13.9839 3.78943L8.83801 6.82344L10.7319 7.94379L13.9839 6.02086L17.2453 7.94379L19.1392 6.82344L13.9839 3.78943Z" fill="white"/>
<path d="M7.47907 17.5109L7.46863 13.6836L5.57587 12.5644V18.6417L10.7311 21.6652V19.4245L7.47907 17.5109Z" fill="white"/>
<path d="M7.46863 12.0865V9.85626L9.37183 8.7359L7.46863 7.61555L5.57471 8.7359V10.9662L7.46863 12.0865Z" fill="white"/>
<path d="M13.9831 7.61555L12.0892 8.7359L13.9831 9.85626L15.8863 8.7359L13.9831 7.61555Z" fill="white"/>
<path d="M10.7319 15.5972L8.83801 14.4769V16.7176L10.7319 17.8275V15.5972Z" fill="white"/>
<path d="M13.9839 21.3474L12.09 20.2271V22.4574L13.9839 23.5777L15.8871 22.4574V20.2271L13.9839 21.3474Z" fill="white"/>
<path d="M20.4973 7.61555L18.6034 8.7359L20.4973 9.85626V12.0865L22.4005 10.9662V8.7359L20.4973 7.61555Z" fill="white"/>
<path d="M22.4016 12.5632L20.5077 13.6836L20.4973 17.5109L17.2464 19.4234V21.6641L22.4016 18.6405V12.5632Z" fill="white"/>
<path d="M19.1396 16.7175L17.2457 17.8274V15.5971L19.1396 14.4768V16.7175Z" fill="white"/>
</svg>
