<svg width="28" height="27" viewBox="0 0 28 27" fill="none" xmlns="http://www.w3.org/2000/svg">
<path d="M27.0615 16.797C25.2652 24.0042 17.9656 28.4051 10.7452 26.6077C3.53807 24.8059 -0.855791 17.5063 0.940496 10.2991C2.73678 3.09201 10.032 -1.30892 17.2348 0.488457C24.4595 2.26381 28.8534 9.58548 27.0615 16.797Z" fill="#D2F0ED"/>
<path d="M14.01 16.8796C13.9577 16.8974 13.9279 16.8519 13.8923 16.831C12.149 15.8021 10.4075 14.7724 8.66802 13.7421C8.65118 13.7336 8.63369 13.7264 8.61572 13.7207V13.6977L8.64658 13.6799C8.6904 13.6684 8.73353 13.6544 8.77576 13.638L12.884 11.7688C13.2501 11.602 13.6162 11.4378 13.9823 11.2725H14.0084C14.0084 11.3248 14.0084 11.3713 14.0084 11.421C14.0098 13.2407 14.0103 15.0603 14.01 16.8796Z" fill="#729A9A"/>
<path d="M14.0126 11.2738H13.9864C13.9864 11.2215 13.9917 11.1692 13.9917 11.1142C13.9917 9.07035 13.9917 7.02628 13.9917 4.98203C13.9856 4.92953 13.9892 4.87637 14.0021 4.82513H14.0131C14.2281 5.14259 14.4153 5.47731 14.613 5.80524C16.1792 8.40317 17.7446 11.0008 19.309 13.598C19.3242 13.6236 19.3362 13.6503 19.3498 13.6785C19.3055 13.6691 19.262 13.6563 19.2196 13.6404C18.9325 13.5107 18.6443 13.3789 18.3598 13.2465C17.9142 13.0426 17.4684 12.8389 17.0225 12.6357L14.874 11.6624C14.5879 11.5306 14.3002 11.4024 14.0126 11.2738Z" fill="#496E6B"/>
<path d="M14.0038 4.82243C13.9909 4.87367 13.9874 4.92682 13.9934 4.97933C13.9934 7.02323 13.9934 9.0673 13.9934 11.1115C13.9934 11.1638 13.9902 11.2161 13.9882 11.2711C13.6221 11.4363 13.2559 11.6006 12.8898 11.7674L8.78165 13.6366C8.73941 13.653 8.69628 13.6669 8.65247 13.6784C8.77119 13.4316 8.92548 13.2077 9.06617 12.9713C10.6962 10.2618 12.3274 7.55285 13.9599 4.84439C13.9707 4.82939 13.9824 4.81507 13.995 4.80151L14.0038 4.82243Z" fill="#BCD4D2"/>
<path d="M14.0126 11.2738C14.3002 11.4024 14.588 11.5306 14.8751 11.6603L17.0236 12.6336C17.4699 12.8365 17.9157 13.0402 18.3609 13.2445C18.6475 13.3758 18.9362 13.5086 19.2207 13.6383C19.2631 13.6543 19.3067 13.667 19.351 13.6765C19.4033 13.7419 19.3259 13.7445 19.3023 13.7586C18.8562 14.0253 18.408 14.2884 17.9608 14.553C16.6774 15.3124 15.3943 16.0717 14.1115 16.8307C14.0791 16.8496 14.044 16.8634 14.01 16.8796C14.01 15.0606 14.0101 13.2417 14.0101 11.4223C14.0106 11.3727 14.0121 11.3234 14.0126 11.2738Z" fill="#324B49"/>
<path d="M13.9916 17.9129L17.3519 15.9323C17.9935 15.5536 18.6347 15.1746 19.2755 14.7953L19.3336 14.7634C19.3393 14.8157 19.3032 14.8434 19.2813 14.8737C17.8169 16.9382 16.3524 19.002 14.888 21.065C14.6108 21.4563 14.3342 21.8496 14.0544 22.2376C14.0397 22.258 14.0172 22.3537 13.9723 22.2523C14.0078 22.2219 13.9921 22.1811 13.9921 22.1477C13.9925 20.7356 13.9923 19.324 13.9916 17.9129Z" fill="#496E6B"/>
<path d="M13.9913 17.9132C13.9913 19.3242 13.9913 20.7349 13.9913 22.1453C13.9913 22.1814 14.007 22.2222 13.9714 22.2499C13.8967 22.2049 13.8642 22.1244 13.8145 22.058C12.1165 19.6661 10.4194 17.2739 8.7231 14.8813C8.70166 14.851 8.68178 14.8186 8.65982 14.7851C8.70375 14.7595 8.72729 14.7945 8.75291 14.8097C10.4701 15.8236 12.187 16.8384 13.9035 17.8541C13.9354 17.8739 13.9626 17.8943 13.9913 17.9132Z" fill="#BCD4D2"/>
<path d="M14.0042 4.8224L13.9917 4.80305C14.0147 4.7884 14.0116 4.80985 14.0152 4.82083L14.0042 4.8224Z" fill="#C1EAE6"/>
</svg>
