<svg width="30" height="44" viewBox="0 0 30 44" fill="none" xmlns="http://www.w3.org/2000/svg">
<mask id="path-1-inside-1_200_1840" fill="white">
<path d="M29.7099 13.252C29.7245 13.3355 29.6766 13.3604 29.5664 13.3267L25.7283 11.725C25.7147 11.7192 25.6998 11.7172 25.6851 11.7192C25.6704 11.7212 25.6565 11.7272 25.6448 11.7366C25.6331 11.7459 25.6241 11.7583 25.6187 11.7724C25.6133 11.7864 25.6116 11.8017 25.614 11.8166C25.6837 12.2436 25.7761 12.6643 25.8913 13.0786C26.1929 14.1648 27.0758 14.8632 27.5257 15.894C28.2457 17.543 28.4054 19.2586 28.0049 21.0409C27.9871 21.1196 27.9976 21.1942 28.0365 21.2649C28.3259 21.7923 28.6859 22.3029 28.8999 22.8328C29.9182 25.3664 30.2296 27.9981 29.8339 30.7276C29.3353 34.1765 28.4232 37.5146 26.0372 40.1278C25.9821 40.1872 25.9902 40.2362 26.0615 40.2747C26.3664 40.4369 26.6818 40.5717 27.0077 40.6793C27.7957 40.937 28.6835 41.8089 28.18 42.6518C28.1378 42.7209 28.0803 42.773 28.0073 42.8084C27.6182 42.9978 27.2752 43.2467 26.9785 43.555C26.9169 43.6192 26.8423 43.6393 26.7547 43.6152L26.2634 43.4851C26.1742 43.4611 26.0907 43.4731 26.0129 43.5213L25.5629 43.8079C25.5256 43.8316 25.482 43.8443 25.4372 43.8443C25.3924 43.8443 25.3483 43.8316 25.3099 43.8079C25.0424 43.6417 24.8162 43.4948 24.483 43.49C23.5977 43.4755 22.4448 43.5213 21.7905 42.8927C21.5635 42.6743 21.3341 42.4592 21.1022 42.2472C21.0438 42.1942 20.9749 42.1621 20.8954 42.1509C19.9242 42.0112 18.9269 41.8763 17.9038 41.7463C14.9559 41.3673 11.9529 41.5158 8.89473 42.1918C8.81852 42.2095 8.7553 42.248 8.70504 42.3074C8.37587 42.712 8.15533 42.9625 8.04344 43.0589C7.15567 43.8247 6.44304 43.6923 5.44339 43.6176C4.98369 43.5815 4.6675 43.7356 4.28807 43.9428C4.18178 44.001 4.05658 44.0155 3.93959 43.983C3.82261 43.9506 3.72322 43.8738 3.66297 43.7694L3.52434 43.5285C3.38165 43.2812 3.20977 43.2596 3.00871 43.4635C2.75413 43.722 2.54575 43.7364 2.3836 43.5068C1.27936 41.9486 3.00628 41.096 4.02053 40.3277C4.08701 40.2763 4.0943 40.2185 4.04241 40.1543C3.88188 39.9592 3.66054 39.8388 3.51947 39.6581C2.08931 37.8325 1.34504 35.8721 0.719956 33.5359C0.121624 31.2976 -0.103771 29.0273 0.043785 26.7248C0.167019 24.8013 0.619435 23.0937 1.401 21.6021C1.55828 21.3034 1.62475 20.9614 1.60043 20.5761C1.48854 18.7874 1.82908 17.1657 2.62199 15.711C2.97466 15.0655 3.43434 14.4851 3.87944 13.8782C4.12915 13.5362 4.28157 13.1797 4.3367 12.8088C4.39832 12.3978 4.43482 11.9956 4.44617 11.6022C4.44941 11.5203 4.41129 11.4914 4.33183 11.5155C3.05896 11.9041 1.81365 12.3601 0.595909 12.8835C0.578073 12.8915 0.564309 12.8859 0.55458 12.8666C0.548094 12.8522 0.55213 12.841 0.566724 12.8329C1.80879 12.1602 3.1149 11.6391 4.48507 11.2698C4.55803 11.2506 4.6083 11.2048 4.63586 11.1326L5.41907 9.03722C5.44826 8.96175 5.42148 8.92081 5.33879 8.91438C4.75343 8.86622 4.17051 8.84133 3.59002 8.83972C3.58515 8.83972 3.58271 8.84214 3.58271 8.84695V8.84935C3.58433 8.85096 3.58758 8.85176 3.58758 8.85176C4.1243 8.79717 4.73883 8.73134 5.43121 8.65427C5.51225 8.64527 5.59007 8.61825 5.65876 8.57527C5.72745 8.53229 5.78522 8.47448 5.82767 8.40621L6.83462 6.77088C6.88884 6.68315 6.90817 6.57859 6.88884 6.47754C6.86951 6.37649 6.81291 6.28617 6.73005 6.22416C5.0291 4.93484 4.76317 3.39825 5.93227 1.6144C7.02921 -0.0594689 9.44441 -0.683253 10.9281 0.968937C11.0529 1.10702 11.194 1.22664 11.3513 1.32779C11.4194 1.37114 11.4932 1.38239 11.5726 1.36151C14.2992 0.636574 16.9455 0.6173 19.6136 1.52047C19.6563 1.53491 19.7029 1.53275 19.744 1.51441C19.7851 1.49607 19.8176 1.46293 19.835 1.42173C20.2371 0.48725 20.8557 0.0304487 21.6908 0.0513219C23.1939 0.0874485 24.3809 1.47231 24.7287 2.87161C25.0821 4.28296 24.6062 5.36114 23.3009 6.10615C23.1323 6.20088 23.095 6.33253 23.189 6.50112C23.7955 7.58813 24.3492 8.63983 24.8503 9.65619C24.8876 9.73165 24.9484 9.7726 25.0327 9.77902C26.6655 9.8882 28.2424 10.2495 29.7634 10.8628C29.7893 10.8725 29.7974 10.8901 29.7877 10.9158L29.7683 10.9736C29.7666 10.9768 29.7634 10.9776 29.7585 10.976C28.4435 10.5505 27.0101 10.2302 25.4583 10.015C25.173 9.9749 25.0781 10.0897 25.1738 10.3594L25.4802 11.2144C25.511 11.3011 25.5702 11.3606 25.6578 11.3927C27.0652 11.9113 28.4159 12.5311 29.7099 13.252ZM20.6814 9.9163C20.6797 9.90549 20.6803 9.89444 20.6831 9.88385C20.6859 9.87326 20.6909 9.86335 20.6977 9.85475C20.7046 9.84616 20.7131 9.83907 20.7229 9.83391C20.7326 9.82875 20.7433 9.82564 20.7544 9.82478L23.6633 9.53335C23.6786 9.5318 23.6931 9.52664 23.7059 9.51829C23.7186 9.50994 23.7292 9.49866 23.7366 9.48542C23.744 9.47217 23.7481 9.45734 23.7484 9.4422C23.7488 9.42706 23.7455 9.41207 23.7387 9.39848L23.3885 8.65668C23.3593 8.59406 23.3098 8.57239 23.2401 8.59166L20.2703 9.47073C20.1958 9.49321 20.1633 9.46592 20.173 9.38885L20.1852 9.30696C20.1868 9.28288 20.199 9.26762 20.2217 9.2612L23.0772 8.43993C23.2393 8.39336 23.2774 8.29863 23.1915 8.15573C22.7707 7.45488 22.3134 6.85758 22.3232 6.04594C22.3248 5.96405 22.2948 5.89741 22.2332 5.84603C22.1505 5.77699 22.0702 5.73604 21.9924 5.7232C21.884 5.70666 21.7826 5.66034 21.7 5.58959C21.6174 5.51884 21.5568 5.42656 21.5254 5.3234C21.2546 4.44834 20.983 3.59494 20.7106 2.76323C20.6859 2.68844 20.6428 2.62075 20.5851 2.56615C20.5274 2.51155 20.4569 2.47171 20.3798 2.45013C17.4854 1.62645 14.844 1.24591 11.8913 1.99735C11.5581 2.08164 11.1397 2.10331 10.8916 1.91545C10.0184 1.25795 9.25958 0.506516 8.05805 0.756993C8.03341 0.761739 8.01144 0.77529 7.99656 0.794934C7.98168 0.814578 7.97497 0.83887 7.97777 0.862965L7.98507 0.925587C7.98831 0.951277 8.00373 0.963311 8.0313 0.961705C9.01393 0.889452 9.53766 1.30853 9.60252 2.21892C9.6917 3.46007 9.32768 4.59123 8.51044 5.6124C8.45207 5.68466 8.37506 5.72401 8.27939 5.73043C8.03941 5.74649 7.81076 5.79947 7.59348 5.88938C7.57126 5.89829 7.55109 5.91156 7.53419 5.9284C7.51729 5.94523 7.50401 5.96529 7.49515 5.98734C7.48628 6.0094 7.48202 6.033 7.48262 6.05673C7.48322 6.08046 7.48866 6.10381 7.49862 6.1254C7.73941 6.6384 7.74915 7.01413 7.38431 7.50545C7.0892 7.89883 6.80137 8.30987 6.52085 8.73857C6.50733 8.75909 6.4994 8.78272 6.49781 8.80716C6.49623 8.83161 6.50106 8.85604 6.51183 8.87809C6.5226 8.90014 6.53894 8.91907 6.55927 8.93302C6.57961 8.94698 6.60325 8.95549 6.62789 8.95773C8.07102 9.07334 9.54172 9.24273 11.04 9.46591C11.0578 9.46912 11.0659 9.47956 11.0643 9.49722L11.0546 9.56467C11.054 9.57092 11.0521 9.57699 11.049 9.5825C11.046 9.588 11.0418 9.59283 11.0368 9.59667C11.0318 9.60051 11.026 9.60329 11.0199 9.60483C11.0137 9.60636 11.0073 9.60662 11.0011 9.60561C9.85304 9.44825 8.70826 9.31419 7.56673 9.2034C7.24243 9.17129 6.91247 9.11027 6.57682 9.02036C6.49899 8.99948 6.44384 9.02598 6.41141 9.09984C6.09522 9.82077 5.77821 10.5417 5.4604 11.2626C5.15394 11.9611 5.14664 12.6282 5.06638 13.3556C5.0426 13.569 4.95537 13.7702 4.81585 13.9336C3.27867 15.7447 2.33741 17.4547 2.49307 19.9475C2.5709 21.2143 3.47812 22.6256 4.18834 23.6589C4.75262 24.4801 5.20989 24.9666 6.10738 25.0028C7.06082 25.0397 8.01427 25.0269 8.96771 24.9642C9.86277 24.904 10.7311 25.5254 11.4753 25.9493C11.9229 26.2046 12.2488 25.8987 12.7231 26.1251C12.809 26.1669 12.8512 26.1404 12.8496 26.0456C12.8496 26.0007 12.8301 25.9549 12.7912 25.9083C12.5058 25.5696 12.2812 25.3086 12.1175 25.1256C11.7721 24.7386 11.8548 24.6014 12.3655 24.7138C12.7547 24.8005 13.1293 25.2725 13.6279 24.8992C13.696 24.8494 13.7017 24.794 13.6449 24.733C13.4422 24.5163 13.2257 24.3148 12.9955 24.1285C12.9225 24.0691 12.8771 24.0113 12.8593 23.9551C12.8317 23.8684 12.8431 23.7945 12.8934 23.7335C12.9452 23.6677 13.0109 23.6508 13.0904 23.6829C13.2266 23.7359 13.3692 23.7616 13.5184 23.76C13.6092 23.76 13.6384 23.7183 13.606 23.6348C13.5687 23.5336 13.503 23.4541 13.409 23.3963C13.3393 23.3514 13.2639 23.3369 13.1828 23.353C12.5796 23.4734 11.9918 23.418 11.4194 23.1868C11.3884 23.1743 11.3612 23.154 11.3407 23.1277C11.3202 23.1015 11.3071 23.0704 11.3027 23.0375C11.2929 22.9508 11.3448 22.9114 11.4583 22.9195C11.961 22.9548 12.4134 23.0038 12.8155 23.0664C13.0101 23.0953 13.032 23.0479 12.8812 22.9243C11.7186 21.9545 10.5422 20.9967 9.35199 20.051C9.30172 20.0109 9.27823 19.9659 9.28148 19.9161C9.28335 19.8972 9.2893 19.8789 9.29896 19.8625C9.30862 19.846 9.32175 19.8318 9.33744 19.8209C9.35314 19.8099 9.37103 19.8024 9.38991 19.7989C9.40878 19.7954 9.42821 19.796 9.44685 19.8005C9.76142 19.8776 10.063 20.0133 10.3516 20.2076C11.2467 20.8113 12.1361 21.4945 13.0198 22.2572C13.3166 22.5124 13.5784 22.795 13.8054 23.1049C13.8531 23.1694 13.8809 23.2463 13.8857 23.3265C13.9165 23.805 14.0414 24.2923 14.2603 24.7884C14.2878 24.8502 14.301 24.9173 14.299 24.9848C14.2969 25.0524 14.2796 25.1186 14.2484 25.1786C14.2171 25.2387 14.1727 25.291 14.1184 25.3318C14.064 25.3727 14.0012 25.401 13.9344 25.4146C13.7673 25.4499 13.5922 25.4331 13.409 25.364C13.2663 25.311 13.2395 25.3456 13.3287 25.4676C13.6141 25.8594 13.6101 26.1741 13.3166 26.4117C12.6939 26.9175 11.9715 26.9392 11.1494 26.4767C10.5097 26.1155 9.72899 25.5037 8.96284 25.5375C7.98021 25.584 7.13703 25.6089 6.4333 25.6121C5.37527 25.6193 4.83288 25.3881 4.18347 24.6271C3.25922 23.5465 2.62848 22.4306 2.29121 21.2793C2.26688 21.1942 2.23767 21.1926 2.20362 21.2745C1.33288 23.3602 0.858594 25.4788 0.780762 27.6304C0.666447 30.8408 1.55909 34.1669 2.92358 37.1413C3.76028 38.9621 4.73559 40.4601 6.61572 41.1538C7.21405 41.3754 7.92671 41.3585 8.58099 41.373C9.02852 41.3842 9.51982 41.332 10.0549 41.2164C13.3125 40.5067 16.5774 40.5027 19.8496 41.2044C20.4406 41.3296 20.9781 41.32 21.5789 41.3489C21.9145 41.3665 22.692 41.1096 23.9114 40.5782C24.2892 40.4128 24.6711 40.2426 25.057 40.0676C25.3813 39.9215 25.631 39.7256 25.8061 39.4799C28.1849 36.1731 29.2599 32.2522 29.2502 28.2566C29.2437 26.2495 28.7062 24.1462 27.6376 21.9465C27.6019 21.871 27.572 21.8734 27.5476 21.9537C27.2922 22.8593 26.4045 24.7089 25.2783 24.7836C24.3038 24.8462 23.3244 24.9466 22.3402 25.0847C21.8343 25.1545 21.4232 25.1979 20.9733 25.511C20.2266 26.0288 19.0615 26.8886 18.3878 26.6526C17.997 26.5161 17.6216 26.382 17.2617 26.2503C17.2291 26.2387 17.1997 26.2201 17.1754 26.1957C17.1511 26.1713 17.1326 26.1418 17.1212 26.1093C17.1098 26.0768 17.1058 26.0422 17.1095 26.0078C17.1131 25.9735 17.1244 25.9403 17.1425 25.9108C17.4392 25.4291 17.877 25.1232 18.4559 24.9931C18.4926 24.9852 18.5309 24.991 18.5633 25.0092C18.5957 25.0275 18.6198 25.057 18.631 25.0919C18.6391 25.1192 18.6424 25.1457 18.6407 25.1714C18.6343 25.2549 18.5921 25.3135 18.5143 25.3472C18.331 25.4275 18.1956 25.5631 18.1081 25.7542C18.0724 25.8313 18.0943 25.8835 18.1737 25.9108C18.7607 26.1115 19.2577 26.0496 19.6647 25.7253C20.6636 24.9321 21.677 24.4954 22.705 24.4151C23.5223 24.3509 24.3403 24.2907 25.1591 24.2345C25.7477 24.1935 25.8694 23.9358 26.1515 23.4951C27.82 20.9012 28.0535 17.5992 26.1345 15.1017C25.5734 14.3743 25.2589 13.8244 25.1908 13.4519C25.0773 12.8177 24.9127 12.1907 24.697 11.5709C24.6711 11.4938 24.6184 11.4441 24.5389 11.4216C23.4801 11.1165 22.2818 10.8684 20.9441 10.6774C20.8225 10.6597 20.7244 10.5995 20.6498 10.4967C20.5963 10.4229 20.6149 10.3916 20.7057 10.4028C22.0305 10.5714 23.2928 10.8235 24.4927 11.1591C24.6192 11.1944 24.6565 11.1518 24.6046 11.0314C24.4522 10.6669 24.2649 10.3153 24.0428 9.97651C24.01 9.92561 23.9647 9.88384 23.911 9.85518C23.8574 9.82652 23.7972 9.8119 23.7363 9.81273C22.7828 9.82397 21.7751 9.89383 20.713 10.0223C20.7017 10.0223 20.6952 10.0174 20.6935 10.0078L20.6814 9.9163ZM22.5177 1.12789C22.5206 1.12739 22.5234 1.12624 22.5258 1.12455C22.5282 1.12286 22.5301 1.12068 22.5314 1.11825C22.5326 1.11581 22.5331 1.11319 22.5328 1.11066C22.5326 1.10813 22.5316 1.10577 22.5299 1.10381C22.3499 0.842092 22.0856 0.752984 21.737 0.836476C20.9781 1.01791 20.6052 1.50281 20.6182 2.29117C20.6198 2.37145 20.6465 2.42926 20.6984 2.46458C20.7763 2.51596 20.8249 2.49668 20.8443 2.40677C21.0227 1.59272 21.5805 1.16642 22.5177 1.12789ZM21.2895 3.34366C21.4573 3.90482 21.9146 5.22224 22.418 5.48235C23.1307 5.85325 23.9187 4.90673 24.1036 4.34797C24.4806 3.21119 23.7436 1.97808 22.8096 1.30613C22.6961 1.22584 22.5429 1.20497 22.3499 1.2435C21.1387 1.49398 20.9684 2.25745 21.2895 3.34366ZM9.10149 1.90582C9.0496 1.6987 8.93772 1.55579 8.76584 1.47712C7.88861 1.07731 7.15406 1.2411 6.56221 1.96845C5.98983 2.6685 5.81388 3.43438 6.03441 4.26609C6.39438 5.62446 7.90237 5.95682 8.68556 4.73092C9.22714 3.88154 9.3658 2.93985 9.10149 1.90582ZM25.417 41.8474C25.4228 41.7829 25.4468 41.7214 25.4862 41.6697C25.5255 41.618 25.5787 41.5782 25.6397 41.5549C25.7007 41.5316 25.7671 41.5257 25.8313 41.5378C25.8955 41.5499 25.9551 41.5796 26.0032 41.6234L26.7717 42.3146C26.8175 42.3555 26.8724 42.3847 26.9317 42.3998C26.991 42.415 27.053 42.4155 27.1122 42.4013C27.2355 42.3741 27.3303 42.3227 27.3968 42.2472C27.4199 42.2213 27.4373 42.191 27.448 42.1581C27.4588 42.1252 27.4625 42.0904 27.4591 42.0559C27.4557 42.0214 27.4452 41.9879 27.4282 41.9574C27.4112 41.9269 27.3881 41.9001 27.3603 41.8787C26.7588 41.4211 26.1053 41.039 25.3999 40.7323C25.331 40.702 25.2566 40.6864 25.1816 40.6864C25.1066 40.6864 25.0327 40.702 24.9646 40.7323C23.9252 41.1851 22.8696 41.4821 21.7978 41.6234C21.7119 41.6347 21.6892 41.678 21.7297 41.7535C22.5104 43.2202 23.6487 42.3941 24.8527 42.8228C25.1527 42.9304 25.4656 42.9698 25.7916 42.9408C26.0186 42.9216 26.0494 42.8349 25.884 42.6807C25.55 42.3676 25.3943 42.0899 25.417 41.8474ZM4.73073 42.1918L4.29294 42.7723C3.99296 43.1672 4.07485 43.2732 4.5386 43.0902C4.99748 42.9103 5.50986 42.8558 6.07576 42.9264C6.90516 43.0324 7.66646 42.8397 8.09454 42.0666C8.10866 42.0411 8.11556 42.0123 8.11449 41.9832C8.11343 41.9541 8.10443 41.9259 8.08848 41.9014C8.07253 41.877 8.05021 41.8573 8.02388 41.8444C7.99754 41.8315 7.96817 41.8259 7.93887 41.8282C7.4354 41.8643 7.00244 41.8739 6.52085 41.6427C5.95333 41.3713 5.38906 41.0976 4.82802 40.8214C4.75505 40.7861 4.68289 40.7893 4.61155 40.8311C3.93701 41.2276 3.32732 41.7302 2.78249 42.3387C2.76769 42.355 2.7565 42.3742 2.74966 42.395C2.74281 42.4159 2.74048 42.4379 2.74277 42.4597C2.74506 42.4815 2.75195 42.5026 2.76299 42.5215C2.77402 42.5405 2.78896 42.557 2.80684 42.5699C2.95926 42.6791 3.0906 42.7024 3.20086 42.6398C3.25275 42.6093 3.30787 42.5274 3.36624 42.3941C3.60298 41.8482 4.02943 41.686 4.6456 41.9076C4.67307 41.9177 4.69782 41.934 4.71784 41.9552C4.73786 41.9763 4.75258 42.0017 4.76086 42.0294C4.76914 42.057 4.77073 42.0861 4.76549 42.1143C4.76026 42.1426 4.74835 42.1691 4.73073 42.1918ZM3.49516 42.5434C3.45948 42.582 3.4384 42.6069 3.43191 42.6181C3.34922 42.7931 3.3922 42.8309 3.56083 42.7313C3.76352 42.6125 3.9054 42.4696 3.98647 42.3026C4.1243 42.0168 4.05699 41.9574 3.78458 42.1244C3.6654 42.1966 3.62406 42.4134 3.49516 42.5434Z"/>
<path d="M12.866 5.37786C13.1045 5.6293 13.2144 5.98092 13.1715 6.35536C13.1286 6.7298 12.9365 7.09638 12.6375 7.37448C12.4894 7.51218 12.3195 7.62401 12.1375 7.70358C11.9555 7.78316 11.765 7.82892 11.5768 7.83825C11.3886 7.84758 11.2064 7.82032 11.0407 7.75799C10.8749 7.69566 10.7288 7.59948 10.6107 7.47498C10.3723 7.22354 10.2624 6.87193 10.3053 6.49749C10.3481 6.12306 10.5402 5.75646 10.8393 5.47836C10.9874 5.34066 11.1573 5.22883 11.3393 5.14926C11.5213 5.06968 11.7118 5.02392 11.9 5.01459C12.0882 5.00526 12.2704 5.03254 12.4361 5.09487C12.6019 5.1572 12.748 5.25336 12.866 5.37786ZM12.0178 6.10151C12.0436 6.08237 12.0647 6.05743 12.0798 6.02812C12.0949 5.99882 12.1037 5.9657 12.1057 5.93068C12.1077 5.89566 12.1029 5.85942 12.0916 5.82402C12.0803 5.78861 12.0626 5.75476 12.0397 5.72436C11.9933 5.66299 11.9281 5.61949 11.8584 5.60341C11.7888 5.58734 11.7203 5.60001 11.6681 5.63865C11.6423 5.65778 11.6213 5.68272 11.6062 5.71203C11.5911 5.74134 11.5823 5.77444 11.5803 5.80946C11.5782 5.84448 11.583 5.88074 11.5943 5.91614C11.6057 5.95154 11.6233 5.9854 11.6463 6.01579C11.6926 6.07716 11.7578 6.12067 11.8275 6.13674C11.8972 6.15282 11.9656 6.14015 12.0178 6.10151Z"/>
<path d="M20.1613 7.95661C19.8806 8.11645 19.5311 8.13161 19.1898 7.99874C18.8485 7.86587 18.5434 7.59586 18.3414 7.24812C18.1395 6.90037 18.0573 6.50338 18.113 6.14446C18.1688 5.78554 18.3578 5.4941 18.6385 5.33426C18.9192 5.17441 19.2686 5.15926 19.6099 5.29213C19.9512 5.42499 20.2564 5.695 20.4584 6.04275C20.6603 6.3905 20.7424 6.78749 20.6867 7.14641C20.631 7.50533 20.442 7.79677 20.1613 7.95661ZM18.53 6.49514C18.5592 6.51155 18.5924 6.52015 18.6279 6.52047C18.6633 6.52079 18.7003 6.51281 18.7366 6.49699C18.773 6.48117 18.808 6.45782 18.8397 6.42827C18.8714 6.39872 18.8992 6.36355 18.9215 6.32477C18.9664 6.24646 18.9861 6.15819 18.9762 6.0794C18.9663 6.0006 18.9277 5.93773 18.8688 5.9046C18.8397 5.88819 18.8064 5.87959 18.7709 5.87927C18.7355 5.87895 18.6985 5.88693 18.6622 5.90275C18.6258 5.91857 18.5908 5.94192 18.5591 5.97147C18.5273 6.00102 18.4996 6.03619 18.4774 6.07497C18.4324 6.15328 18.4127 6.24155 18.4226 6.32034C18.4325 6.39914 18.4711 6.46201 18.53 6.49514Z"/>
<path d="M16.014 11.2288C16.0359 11.8165 15.9264 12.7871 16.4591 13.158C17.1207 13.6188 17.8909 13.7087 18.7697 13.4277C18.9546 13.3683 19.004 13.4253 18.9181 13.5987C18.7867 13.8621 18.5289 14.0355 18.1446 14.119C17.5739 14.2426 16.9172 14.1182 16.1745 13.7457C16.0869 13.7023 16.0059 13.7111 15.9313 13.7721C15.4205 14.1896 14.7516 14.3606 13.9247 14.2851C13.7333 14.2675 13.5323 14.1744 13.3215 14.0058C13.2712 13.9672 13.2315 13.9175 13.2023 13.8564C13.0985 13.6333 13.1691 13.5361 13.4139 13.565C15.4497 13.8083 16.0286 12.9509 15.7221 11.2481C15.7075 11.1662 15.6621 11.11 15.5859 11.0795C15.0184 10.8451 14.609 10.4919 14.3576 10.0198C14.0949 9.52206 14.1387 9.15035 14.4889 8.90469C15.0508 8.5073 16.2037 8.66385 16.8677 8.81558C17.6509 8.99381 17.6703 9.66093 17.2982 10.2197C17.0226 10.6323 16.6464 10.8997 16.1696 11.0217C16.1236 11.0333 16.083 11.0602 16.0547 11.0979C16.0263 11.1356 16.012 11.1819 16.014 11.2288ZM15.5738 10.6508C16.0943 10.8242 16.5247 10.6966 16.8653 10.2679C16.9415 10.1715 17.0177 10.0752 17.0939 9.97885C17.4344 9.55175 17.3412 9.25954 16.8142 9.10219C16.1591 8.90791 15.4878 8.87258 14.8003 8.99622C14.7387 9.00734 14.6804 9.03154 14.6292 9.06716C14.578 9.10277 14.5352 9.14895 14.5037 9.20251C14.4723 9.25608 14.453 9.31575 14.4471 9.37743C14.4411 9.43911 14.4488 9.50132 14.4695 9.55978C14.6641 10.1089 15.0322 10.4726 15.5738 10.6508Z"/>
<path d="M5.83998 11.0915C7.52309 10.711 9.23133 10.5303 10.9647 10.5496C10.9793 10.5496 10.9866 10.5568 10.9866 10.5713V10.6363C10.9882 10.7006 10.9558 10.7319 10.8893 10.7302C9.18351 10.711 7.4931 10.8836 5.8181 11.2481C5.81583 11.2485 5.81349 11.2485 5.81127 11.2481C5.80904 11.2477 5.80697 11.2469 5.80515 11.2457C5.80333 11.2446 5.80182 11.2432 5.8007 11.2415C5.79958 11.2398 5.79862 11.236 5.79862 11.236L5.78648 11.1758C5.78223 11.158 5.78544 11.1392 5.79544 11.1234C5.80545 11.1077 5.82145 11.0962 5.83998 11.0915Z"/>
<path d="M18.2297 22.7314L19.4531 22.8037C19.4725 22.8053 19.4831 22.8157 19.4847 22.835L19.4871 22.9C19.4886 22.9218 19.4817 22.9434 19.4678 22.9607C19.4539 22.978 19.434 22.9898 19.4117 22.9939C18.9399 23.0774 18.4705 23.1128 18.0035 23.0999C17.8981 23.0983 17.8089 23.1352 17.7359 23.2107C17.4538 23.5045 17.226 23.8144 17.0525 24.1404C16.7476 24.7104 16.8579 24.8059 17.3832 24.427C17.6216 24.2552 17.8146 24.1669 17.9621 24.162C18.4615 24.1428 18.5037 24.2712 18.0886 24.5474C17.8632 24.6951 17.633 24.9095 17.3978 25.1904C16.7541 25.9611 16.4363 25.8463 16.4444 24.846C16.459 22.8037 19.0664 20.7421 20.6741 19.8028C20.747 19.7594 20.8095 19.7722 20.8614 19.8413L20.9027 19.8967C20.9128 19.909 20.9177 19.9247 20.9163 19.9408C20.915 19.9569 20.9075 19.9721 20.8954 19.9834L18.1518 22.5243C18.014 22.6527 18.0399 22.7218 18.2297 22.7314Z"/>
<path d="M15.462 21.7536C15.4689 21.7533 15.4758 21.7544 15.4823 21.7568C15.4888 21.7592 15.4947 21.7628 15.4997 21.7676C15.5047 21.7723 15.5087 21.778 15.5114 21.7843C15.5141 21.7906 15.5155 21.7974 15.5155 21.8042V21.8307C15.5708 23.7906 15.6089 25.6717 15.6217 27.0659C15.6344 28.4601 15.6208 29.2548 15.5836 29.2776L15.5301 29.28C15.5114 29.2921 15.4874 29.1086 15.4594 28.7402C15.4314 28.3718 15.4 27.8258 15.3669 27.1338C15.3339 26.4418 15.3 25.6176 15.267 24.709C15.2341 23.8003 15.2028 22.8253 15.175 21.8403V21.8139C15.1747 21.8072 15.1757 21.8006 15.1779 21.7943C15.1802 21.788 15.1837 21.7823 15.1882 21.7774C15.1927 21.7724 15.1982 21.7685 15.2043 21.7656C15.2104 21.7628 15.2169 21.7612 15.2236 21.7609L15.462 21.7536Z"/>
<path d="M8.57134 39.4774C8.73998 39.585 8.91833 39.6886 9.10642 39.7881C9.12705 39.7989 9.14479 39.8143 9.15814 39.8333C9.1715 39.8522 9.18008 39.874 9.18317 39.8969C9.18627 39.9197 9.18381 39.943 9.17596 39.9647C9.1681 39.9865 9.15509 40.006 9.13804 40.0218C9.08778 40.0699 9.01321 40.0763 8.91429 40.041C8.1376 39.7648 7.53357 39.2904 7.10225 38.6176C7.04712 38.5325 7.06092 38.4603 7.14361 38.4009L7.19225 38.3647C7.21112 38.3505 7.23475 38.3441 7.25798 38.3468C7.28121 38.3495 7.30215 38.3611 7.31629 38.3792C7.6714 38.8079 8.08976 39.174 8.57134 39.4774Z"/>
<path d="M21.1455 39.5691C21.1317 39.5573 21.1314 39.5304 21.1445 39.4901C21.1576 39.4497 21.1839 39.3967 21.2219 39.334C21.2599 39.2713 21.3089 39.2001 21.3659 39.1246C21.423 39.049 21.4871 38.9706 21.5546 38.8937C21.6221 38.8168 21.6916 38.7431 21.7592 38.6766C21.8268 38.6101 21.8912 38.5522 21.9486 38.5062C22.006 38.4602 22.0554 38.4271 22.0939 38.4086C22.1324 38.3901 22.1593 38.3867 22.1731 38.3985C22.1868 38.4103 22.1871 38.4371 22.174 38.4775C22.1609 38.5178 22.1346 38.5709 22.0966 38.6336C22.0586 38.6963 22.0097 38.7675 21.9526 38.843C21.8955 38.9185 21.8314 38.997 21.7639 39.0739C21.6964 39.1507 21.6269 39.2245 21.5593 39.291C21.4917 39.3575 21.4273 39.4154 21.3699 39.4613C21.3125 39.5073 21.2631 39.5405 21.2246 39.559C21.1861 39.5775 21.1592 39.5809 21.1455 39.5691Z"/>
<path d="M29.423 39.7352C29.3743 39.5442 29.3719 39.3595 29.4157 39.1813C29.44 39.0833 29.47 39.0817 29.5056 39.1765C29.5737 39.3547 29.5803 39.5409 29.5251 39.7352C29.4911 39.8621 29.457 39.8621 29.423 39.7352Z"/>
</mask>
<path d="M29.7099 13.252C29.7245 13.3355 29.6766 13.3604 29.5664 13.3267L25.7283 11.725C25.7147 11.7192 25.6998 11.7172 25.6851 11.7192C25.6704 11.7212 25.6565 11.7272 25.6448 11.7366C25.6331 11.7459 25.6241 11.7583 25.6187 11.7724C25.6133 11.7864 25.6116 11.8017 25.614 11.8166C25.6837 12.2436 25.7761 12.6643 25.8913 13.0786C26.1929 14.1648 27.0758 14.8632 27.5257 15.894C28.2457 17.543 28.4054 19.2586 28.0049 21.0409C27.9871 21.1196 27.9976 21.1942 28.0365 21.2649C28.3259 21.7923 28.6859 22.3029 28.8999 22.8328C29.9182 25.3664 30.2296 27.9981 29.8339 30.7276C29.3353 34.1765 28.4232 37.5146 26.0372 40.1278C25.9821 40.1872 25.9902 40.2362 26.0615 40.2747C26.3664 40.4369 26.6818 40.5717 27.0077 40.6793C27.7957 40.937 28.6835 41.8089 28.18 42.6518C28.1378 42.7209 28.0803 42.773 28.0073 42.8084C27.6182 42.9978 27.2752 43.2467 26.9785 43.555C26.9169 43.6192 26.8423 43.6393 26.7547 43.6152L26.2634 43.4851C26.1742 43.4611 26.0907 43.4731 26.0129 43.5213L25.5629 43.8079C25.5256 43.8316 25.482 43.8443 25.4372 43.8443C25.3924 43.8443 25.3483 43.8316 25.3099 43.8079C25.0424 43.6417 24.8162 43.4948 24.483 43.49C23.5977 43.4755 22.4448 43.5213 21.7905 42.8927C21.5635 42.6743 21.3341 42.4592 21.1022 42.2472C21.0438 42.1942 20.9749 42.1621 20.8954 42.1509C19.9242 42.0112 18.9269 41.8763 17.9038 41.7463C14.9559 41.3673 11.9529 41.5158 8.89473 42.1918C8.81852 42.2095 8.7553 42.248 8.70504 42.3074C8.37587 42.712 8.15533 42.9625 8.04344 43.0589C7.15567 43.8247 6.44304 43.6923 5.44339 43.6176C4.98369 43.5815 4.6675 43.7356 4.28807 43.9428C4.18178 44.001 4.05658 44.0155 3.93959 43.983C3.82261 43.9506 3.72322 43.8738 3.66297 43.7694L3.52434 43.5285C3.38165 43.2812 3.20977 43.2596 3.00871 43.4635C2.75413 43.722 2.54575 43.7364 2.3836 43.5068C1.27936 41.9486 3.00628 41.096 4.02053 40.3277C4.08701 40.2763 4.0943 40.2185 4.04241 40.1543C3.88188 39.9592 3.66054 39.8388 3.51947 39.6581C2.08931 37.8325 1.34504 35.8721 0.719956 33.5359C0.121624 31.2976 -0.103771 29.0273 0.043785 26.7248C0.167019 24.8013 0.619435 23.0937 1.401 21.6021C1.55828 21.3034 1.62475 20.9614 1.60043 20.5761C1.48854 18.7874 1.82908 17.1657 2.62199 15.711C2.97466 15.0655 3.43434 14.4851 3.87944 13.8782C4.12915 13.5362 4.28157 13.1797 4.3367 12.8088C4.39832 12.3978 4.43482 11.9956 4.44617 11.6022C4.44941 11.5203 4.41129 11.4914 4.33183 11.5155C3.05896 11.9041 1.81365 12.3601 0.595909 12.8835C0.578073 12.8915 0.564309 12.8859 0.55458 12.8666C0.548094 12.8522 0.55213 12.841 0.566724 12.8329C1.80879 12.1602 3.1149 11.6391 4.48507 11.2698C4.55803 11.2506 4.6083 11.2048 4.63586 11.1326L5.41907 9.03722C5.44826 8.96175 5.42148 8.92081 5.33879 8.91438C4.75343 8.86622 4.17051 8.84133 3.59002 8.83972C3.58515 8.83972 3.58271 8.84214 3.58271 8.84695V8.84935C3.58433 8.85096 3.58758 8.85176 3.58758 8.85176C4.1243 8.79717 4.73883 8.73134 5.43121 8.65427C5.51225 8.64527 5.59007 8.61825 5.65876 8.57527C5.72745 8.53229 5.78522 8.47448 5.82767 8.40621L6.83462 6.77088C6.88884 6.68315 6.90817 6.57859 6.88884 6.47754C6.86951 6.37649 6.81291 6.28617 6.73005 6.22416C5.0291 4.93484 4.76317 3.39825 5.93227 1.6144C7.02921 -0.0594689 9.44441 -0.683253 10.9281 0.968937C11.0529 1.10702 11.194 1.22664 11.3513 1.32779C11.4194 1.37114 11.4932 1.38239 11.5726 1.36151C14.2992 0.636574 16.9455 0.6173 19.6136 1.52047C19.6563 1.53491 19.7029 1.53275 19.744 1.51441C19.7851 1.49607 19.8176 1.46293 19.835 1.42173C20.2371 0.48725 20.8557 0.0304487 21.6908 0.0513219C23.1939 0.0874485 24.3809 1.47231 24.7287 2.87161C25.0821 4.28296 24.6062 5.36114 23.3009 6.10615C23.1323 6.20088 23.095 6.33253 23.189 6.50112C23.7955 7.58813 24.3492 8.63983 24.8503 9.65619C24.8876 9.73165 24.9484 9.7726 25.0327 9.77902C26.6655 9.8882 28.2424 10.2495 29.7634 10.8628C29.7893 10.8725 29.7974 10.8901 29.7877 10.9158L29.7683 10.9736C29.7666 10.9768 29.7634 10.9776 29.7585 10.976C28.4435 10.5505 27.0101 10.2302 25.4583 10.015C25.173 9.9749 25.0781 10.0897 25.1738 10.3594L25.4802 11.2144C25.511 11.3011 25.5702 11.3606 25.6578 11.3927C27.0652 11.9113 28.4159 12.5311 29.7099 13.252ZM20.6814 9.9163C20.6797 9.90549 20.6803 9.89444 20.6831 9.88385C20.6859 9.87326 20.6909 9.86335 20.6977 9.85475C20.7046 9.84616 20.7131 9.83907 20.7229 9.83391C20.7326 9.82875 20.7433 9.82564 20.7544 9.82478L23.6633 9.53335C23.6786 9.5318 23.6931 9.52664 23.7059 9.51829C23.7186 9.50994 23.7292 9.49866 23.7366 9.48542C23.744 9.47217 23.7481 9.45734 23.7484 9.4422C23.7488 9.42706 23.7455 9.41207 23.7387 9.39848L23.3885 8.65668C23.3593 8.59406 23.3098 8.57239 23.2401 8.59166L20.2703 9.47073C20.1958 9.49321 20.1633 9.46592 20.173 9.38885L20.1852 9.30696C20.1868 9.28288 20.199 9.26762 20.2217 9.2612L23.0772 8.43993C23.2393 8.39336 23.2774 8.29863 23.1915 8.15573C22.7707 7.45488 22.3134 6.85758 22.3232 6.04594C22.3248 5.96405 22.2948 5.89741 22.2332 5.84603C22.1505 5.77699 22.0702 5.73604 21.9924 5.7232C21.884 5.70666 21.7826 5.66034 21.7 5.58959C21.6174 5.51884 21.5568 5.42656 21.5254 5.3234C21.2546 4.44834 20.983 3.59494 20.7106 2.76323C20.6859 2.68844 20.6428 2.62075 20.5851 2.56615C20.5274 2.51155 20.4569 2.47171 20.3798 2.45013C17.4854 1.62645 14.844 1.24591 11.8913 1.99735C11.5581 2.08164 11.1397 2.10331 10.8916 1.91545C10.0184 1.25795 9.25958 0.506516 8.05805 0.756993C8.03341 0.761739 8.01144 0.77529 7.99656 0.794934C7.98168 0.814578 7.97497 0.83887 7.97777 0.862965L7.98507 0.925587C7.98831 0.951277 8.00373 0.963311 8.0313 0.961705C9.01393 0.889452 9.53766 1.30853 9.60252 2.21892C9.6917 3.46007 9.32768 4.59123 8.51044 5.6124C8.45207 5.68466 8.37506 5.72401 8.27939 5.73043C8.03941 5.74649 7.81076 5.79947 7.59348 5.88938C7.57126 5.89829 7.55109 5.91156 7.53419 5.9284C7.51729 5.94523 7.50401 5.96529 7.49515 5.98734C7.48628 6.0094 7.48202 6.033 7.48262 6.05673C7.48322 6.08046 7.48866 6.10381 7.49862 6.1254C7.73941 6.6384 7.74915 7.01413 7.38431 7.50545C7.0892 7.89883 6.80137 8.30987 6.52085 8.73857C6.50733 8.75909 6.4994 8.78272 6.49781 8.80716C6.49623 8.83161 6.50106 8.85604 6.51183 8.87809C6.5226 8.90014 6.53894 8.91907 6.55927 8.93302C6.57961 8.94698 6.60325 8.95549 6.62789 8.95773C8.07102 9.07334 9.54172 9.24273 11.04 9.46591C11.0578 9.46912 11.0659 9.47956 11.0643 9.49722L11.0546 9.56467C11.054 9.57092 11.0521 9.57699 11.049 9.5825C11.046 9.588 11.0418 9.59283 11.0368 9.59667C11.0318 9.60051 11.026 9.60329 11.0199 9.60483C11.0137 9.60636 11.0073 9.60662 11.0011 9.60561C9.85304 9.44825 8.70826 9.31419 7.56673 9.2034C7.24243 9.17129 6.91247 9.11027 6.57682 9.02036C6.49899 8.99948 6.44384 9.02598 6.41141 9.09984C6.09522 9.82077 5.77821 10.5417 5.4604 11.2626C5.15394 11.9611 5.14664 12.6282 5.06638 13.3556C5.0426 13.569 4.95537 13.7702 4.81585 13.9336C3.27867 15.7447 2.33741 17.4547 2.49307 19.9475C2.5709 21.2143 3.47812 22.6256 4.18834 23.6589C4.75262 24.4801 5.20989 24.9666 6.10738 25.0028C7.06082 25.0397 8.01427 25.0269 8.96771 24.9642C9.86277 24.904 10.7311 25.5254 11.4753 25.9493C11.9229 26.2046 12.2488 25.8987 12.7231 26.1251C12.809 26.1669 12.8512 26.1404 12.8496 26.0456C12.8496 26.0007 12.8301 25.9549 12.7912 25.9083C12.5058 25.5696 12.2812 25.3086 12.1175 25.1256C11.7721 24.7386 11.8548 24.6014 12.3655 24.7138C12.7547 24.8005 13.1293 25.2725 13.6279 24.8992C13.696 24.8494 13.7017 24.794 13.6449 24.733C13.4422 24.5163 13.2257 24.3148 12.9955 24.1285C12.9225 24.0691 12.8771 24.0113 12.8593 23.9551C12.8317 23.8684 12.8431 23.7945 12.8934 23.7335C12.9452 23.6677 13.0109 23.6508 13.0904 23.6829C13.2266 23.7359 13.3692 23.7616 13.5184 23.76C13.6092 23.76 13.6384 23.7183 13.606 23.6348C13.5687 23.5336 13.503 23.4541 13.409 23.3963C13.3393 23.3514 13.2639 23.3369 13.1828 23.353C12.5796 23.4734 11.9918 23.418 11.4194 23.1868C11.3884 23.1743 11.3612 23.154 11.3407 23.1277C11.3202 23.1015 11.3071 23.0704 11.3027 23.0375C11.2929 22.9508 11.3448 22.9114 11.4583 22.9195C11.961 22.9548 12.4134 23.0038 12.8155 23.0664C13.0101 23.0953 13.032 23.0479 12.8812 22.9243C11.7186 21.9545 10.5422 20.9967 9.35199 20.051C9.30172 20.0109 9.27823 19.9659 9.28148 19.9161C9.28335 19.8972 9.2893 19.8789 9.29896 19.8625C9.30862 19.846 9.32175 19.8318 9.33744 19.8209C9.35314 19.8099 9.37103 19.8024 9.38991 19.7989C9.40878 19.7954 9.42821 19.796 9.44685 19.8005C9.76142 19.8776 10.063 20.0133 10.3516 20.2076C11.2467 20.8113 12.1361 21.4945 13.0198 22.2572C13.3166 22.5124 13.5784 22.795 13.8054 23.1049C13.8531 23.1694 13.8809 23.2463 13.8857 23.3265C13.9165 23.805 14.0414 24.2923 14.2603 24.7884C14.2878 24.8502 14.301 24.9173 14.299 24.9848C14.2969 25.0524 14.2796 25.1186 14.2484 25.1786C14.2171 25.2387 14.1727 25.291 14.1184 25.3318C14.064 25.3727 14.0012 25.401 13.9344 25.4146C13.7673 25.4499 13.5922 25.4331 13.409 25.364C13.2663 25.311 13.2395 25.3456 13.3287 25.4676C13.6141 25.8594 13.6101 26.1741 13.3166 26.4117C12.6939 26.9175 11.9715 26.9392 11.1494 26.4767C10.5097 26.1155 9.72899 25.5037 8.96284 25.5375C7.98021 25.584 7.13703 25.6089 6.4333 25.6121C5.37527 25.6193 4.83288 25.3881 4.18347 24.6271C3.25922 23.5465 2.62848 22.4306 2.29121 21.2793C2.26688 21.1942 2.23767 21.1926 2.20362 21.2745C1.33288 23.3602 0.858594 25.4788 0.780762 27.6304C0.666447 30.8408 1.55909 34.1669 2.92358 37.1413C3.76028 38.9621 4.73559 40.4601 6.61572 41.1538C7.21405 41.3754 7.92671 41.3585 8.58099 41.373C9.02852 41.3842 9.51982 41.332 10.0549 41.2164C13.3125 40.5067 16.5774 40.5027 19.8496 41.2044C20.4406 41.3296 20.9781 41.32 21.5789 41.3489C21.9145 41.3665 22.692 41.1096 23.9114 40.5782C24.2892 40.4128 24.6711 40.2426 25.057 40.0676C25.3813 39.9215 25.631 39.7256 25.8061 39.4799C28.1849 36.1731 29.2599 32.2522 29.2502 28.2566C29.2437 26.2495 28.7062 24.1462 27.6376 21.9465C27.6019 21.871 27.572 21.8734 27.5476 21.9537C27.2922 22.8593 26.4045 24.7089 25.2783 24.7836C24.3038 24.8462 23.3244 24.9466 22.3402 25.0847C21.8343 25.1545 21.4232 25.1979 20.9733 25.511C20.2266 26.0288 19.0615 26.8886 18.3878 26.6526C17.997 26.5161 17.6216 26.382 17.2617 26.2503C17.2291 26.2387 17.1997 26.2201 17.1754 26.1957C17.1511 26.1713 17.1326 26.1418 17.1212 26.1093C17.1098 26.0768 17.1058 26.0422 17.1095 26.0078C17.1131 25.9735 17.1244 25.9403 17.1425 25.9108C17.4392 25.4291 17.877 25.1232 18.4559 24.9931C18.4926 24.9852 18.5309 24.991 18.5633 25.0092C18.5957 25.0275 18.6198 25.057 18.631 25.0919C18.6391 25.1192 18.6424 25.1457 18.6407 25.1714C18.6343 25.2549 18.5921 25.3135 18.5143 25.3472C18.331 25.4275 18.1956 25.5631 18.1081 25.7542C18.0724 25.8313 18.0943 25.8835 18.1737 25.9108C18.7607 26.1115 19.2577 26.0496 19.6647 25.7253C20.6636 24.9321 21.677 24.4954 22.705 24.4151C23.5223 24.3509 24.3403 24.2907 25.1591 24.2345C25.7477 24.1935 25.8694 23.9358 26.1515 23.4951C27.82 20.9012 28.0535 17.5992 26.1345 15.1017C25.5734 14.3743 25.2589 13.8244 25.1908 13.4519C25.0773 12.8177 24.9127 12.1907 24.697 11.5709C24.6711 11.4938 24.6184 11.4441 24.5389 11.4216C23.4801 11.1165 22.2818 10.8684 20.9441 10.6774C20.8225 10.6597 20.7244 10.5995 20.6498 10.4967C20.5963 10.4229 20.6149 10.3916 20.7057 10.4028C22.0305 10.5714 23.2928 10.8235 24.4927 11.1591C24.6192 11.1944 24.6565 11.1518 24.6046 11.0314C24.4522 10.6669 24.2649 10.3153 24.0428 9.97651C24.01 9.92561 23.9647 9.88384 23.911 9.85518C23.8574 9.82652 23.7972 9.8119 23.7363 9.81273C22.7828 9.82397 21.7751 9.89383 20.713 10.0223C20.7017 10.0223 20.6952 10.0174 20.6935 10.0078L20.6814 9.9163ZM22.5177 1.12789C22.5206 1.12739 22.5234 1.12624 22.5258 1.12455C22.5282 1.12286 22.5301 1.12068 22.5314 1.11825C22.5326 1.11581 22.5331 1.11319 22.5328 1.11066C22.5326 1.10813 22.5316 1.10577 22.5299 1.10381C22.3499 0.842092 22.0856 0.752984 21.737 0.836476C20.9781 1.01791 20.6052 1.50281 20.6182 2.29117C20.6198 2.37145 20.6465 2.42926 20.6984 2.46458C20.7763 2.51596 20.8249 2.49668 20.8443 2.40677C21.0227 1.59272 21.5805 1.16642 22.5177 1.12789ZM21.2895 3.34366C21.4573 3.90482 21.9146 5.22224 22.418 5.48235C23.1307 5.85325 23.9187 4.90673 24.1036 4.34797C24.4806 3.21119 23.7436 1.97808 22.8096 1.30613C22.6961 1.22584 22.5429 1.20497 22.3499 1.2435C21.1387 1.49398 20.9684 2.25745 21.2895 3.34366ZM9.10149 1.90582C9.0496 1.6987 8.93772 1.55579 8.76584 1.47712C7.88861 1.07731 7.15406 1.2411 6.56221 1.96845C5.98983 2.6685 5.81388 3.43438 6.03441 4.26609C6.39438 5.62446 7.90237 5.95682 8.68556 4.73092C9.22714 3.88154 9.3658 2.93985 9.10149 1.90582ZM25.417 41.8474C25.4228 41.7829 25.4468 41.7214 25.4862 41.6697C25.5255 41.618 25.5787 41.5782 25.6397 41.5549C25.7007 41.5316 25.7671 41.5257 25.8313 41.5378C25.8955 41.5499 25.9551 41.5796 26.0032 41.6234L26.7717 42.3146C26.8175 42.3555 26.8724 42.3847 26.9317 42.3998C26.991 42.415 27.053 42.4155 27.1122 42.4013C27.2355 42.3741 27.3303 42.3227 27.3968 42.2472C27.4199 42.2213 27.4373 42.191 27.448 42.1581C27.4588 42.1252 27.4625 42.0904 27.4591 42.0559C27.4557 42.0214 27.4452 41.9879 27.4282 41.9574C27.4112 41.9269 27.3881 41.9001 27.3603 41.8787C26.7588 41.4211 26.1053 41.039 25.3999 40.7323C25.331 40.702 25.2566 40.6864 25.1816 40.6864C25.1066 40.6864 25.0327 40.702 24.9646 40.7323C23.9252 41.1851 22.8696 41.4821 21.7978 41.6234C21.7119 41.6347 21.6892 41.678 21.7297 41.7535C22.5104 43.2202 23.6487 42.3941 24.8527 42.8228C25.1527 42.9304 25.4656 42.9698 25.7916 42.9408C26.0186 42.9216 26.0494 42.8349 25.884 42.6807C25.55 42.3676 25.3943 42.0899 25.417 41.8474ZM4.73073 42.1918L4.29294 42.7723C3.99296 43.1672 4.07485 43.2732 4.5386 43.0902C4.99748 42.9103 5.50986 42.8558 6.07576 42.9264C6.90516 43.0324 7.66646 42.8397 8.09454 42.0666C8.10866 42.0411 8.11556 42.0123 8.11449 41.9832C8.11343 41.9541 8.10443 41.9259 8.08848 41.9014C8.07253 41.877 8.05021 41.8573 8.02388 41.8444C7.99754 41.8315 7.96817 41.8259 7.93887 41.8282C7.4354 41.8643 7.00244 41.8739 6.52085 41.6427C5.95333 41.3713 5.38906 41.0976 4.82802 40.8214C4.75505 40.7861 4.68289 40.7893 4.61155 40.8311C3.93701 41.2276 3.32732 41.7302 2.78249 42.3387C2.76769 42.355 2.7565 42.3742 2.74966 42.395C2.74281 42.4159 2.74048 42.4379 2.74277 42.4597C2.74506 42.4815 2.75195 42.5026 2.76299 42.5215C2.77402 42.5405 2.78896 42.557 2.80684 42.5699C2.95926 42.6791 3.0906 42.7024 3.20086 42.6398C3.25275 42.6093 3.30787 42.5274 3.36624 42.3941C3.60298 41.8482 4.02943 41.686 4.6456 41.9076C4.67307 41.9177 4.69782 41.934 4.71784 41.9552C4.73786 41.9763 4.75258 42.0017 4.76086 42.0294C4.76914 42.057 4.77073 42.0861 4.76549 42.1143C4.76026 42.1426 4.74835 42.1691 4.73073 42.1918ZM3.49516 42.5434C3.45948 42.582 3.4384 42.6069 3.43191 42.6181C3.34922 42.7931 3.3922 42.8309 3.56083 42.7313C3.76352 42.6125 3.9054 42.4696 3.98647 42.3026C4.1243 42.0168 4.05699 41.9574 3.78458 42.1244C3.6654 42.1966 3.62406 42.4134 3.49516 42.5434Z" fill="#57AEA7"/>
<path d="M12.866 5.37786C13.1045 5.6293 13.2144 5.98092 13.1715 6.35536C13.1286 6.7298 12.9365 7.09638 12.6375 7.37448C12.4894 7.51218 12.3195 7.62401 12.1375 7.70358C11.9555 7.78316 11.765 7.82892 11.5768 7.83825C11.3886 7.84758 11.2064 7.82032 11.0407 7.75799C10.8749 7.69566 10.7288 7.59948 10.6107 7.47498C10.3723 7.22354 10.2624 6.87193 10.3053 6.49749C10.3481 6.12306 10.5402 5.75646 10.8393 5.47836C10.9874 5.34066 11.1573 5.22883 11.3393 5.14926C11.5213 5.06968 11.7118 5.02392 11.9 5.01459C12.0882 5.00526 12.2704 5.03254 12.4361 5.09487C12.6019 5.1572 12.748 5.25336 12.866 5.37786ZM12.0178 6.10151C12.0436 6.08237 12.0647 6.05743 12.0798 6.02812C12.0949 5.99882 12.1037 5.9657 12.1057 5.93068C12.1077 5.89566 12.1029 5.85942 12.0916 5.82402C12.0803 5.78861 12.0626 5.75476 12.0397 5.72436C11.9933 5.66299 11.9281 5.61949 11.8584 5.60341C11.7888 5.58734 11.7203 5.60001 11.6681 5.63865C11.6423 5.65778 11.6213 5.68272 11.6062 5.71203C11.5911 5.74134 11.5823 5.77444 11.5803 5.80946C11.5782 5.84448 11.583 5.88074 11.5943 5.91614C11.6057 5.95154 11.6233 5.9854 11.6463 6.01579C11.6926 6.07716 11.7578 6.12067 11.8275 6.13674C11.8972 6.15282 11.9656 6.14015 12.0178 6.10151Z" fill="#57AEA7"/>
<path d="M20.1613 7.95661C19.8806 8.11645 19.5311 8.13161 19.1898 7.99874C18.8485 7.86587 18.5434 7.59586 18.3414 7.24812C18.1395 6.90037 18.0573 6.50338 18.113 6.14446C18.1688 5.78554 18.3578 5.4941 18.6385 5.33426C18.9192 5.17441 19.2686 5.15926 19.6099 5.29213C19.9512 5.42499 20.2564 5.695 20.4584 6.04275C20.6603 6.3905 20.7424 6.78749 20.6867 7.14641C20.631 7.50533 20.442 7.79677 20.1613 7.95661ZM18.53 6.49514C18.5592 6.51155 18.5924 6.52015 18.6279 6.52047C18.6633 6.52079 18.7003 6.51281 18.7366 6.49699C18.773 6.48117 18.808 6.45782 18.8397 6.42827C18.8714 6.39872 18.8992 6.36355 18.9215 6.32477C18.9664 6.24646 18.9861 6.15819 18.9762 6.0794C18.9663 6.0006 18.9277 5.93773 18.8688 5.9046C18.8397 5.88819 18.8064 5.87959 18.7709 5.87927C18.7355 5.87895 18.6985 5.88693 18.6622 5.90275C18.6258 5.91857 18.5908 5.94192 18.5591 5.97147C18.5273 6.00102 18.4996 6.03619 18.4774 6.07497C18.4324 6.15328 18.4127 6.24155 18.4226 6.32034C18.4325 6.39914 18.4711 6.46201 18.53 6.49514Z" fill="#57AEA7"/>
<path d="M16.014 11.2288C16.0359 11.8165 15.9264 12.7871 16.4591 13.158C17.1207 13.6188 17.8909 13.7087 18.7697 13.4277C18.9546 13.3683 19.004 13.4253 18.9181 13.5987C18.7867 13.8621 18.5289 14.0355 18.1446 14.119C17.5739 14.2426 16.9172 14.1182 16.1745 13.7457C16.0869 13.7023 16.0059 13.7111 15.9313 13.7721C15.4205 14.1896 14.7516 14.3606 13.9247 14.2851C13.7333 14.2675 13.5323 14.1744 13.3215 14.0058C13.2712 13.9672 13.2315 13.9175 13.2023 13.8564C13.0985 13.6333 13.1691 13.5361 13.4139 13.565C15.4497 13.8083 16.0286 12.9509 15.7221 11.2481C15.7075 11.1662 15.6621 11.11 15.5859 11.0795C15.0184 10.8451 14.609 10.4919 14.3576 10.0198C14.0949 9.52206 14.1387 9.15035 14.4889 8.90469C15.0508 8.5073 16.2037 8.66385 16.8677 8.81558C17.6509 8.99381 17.6703 9.66093 17.2982 10.2197C17.0226 10.6323 16.6464 10.8997 16.1696 11.0217C16.1236 11.0333 16.083 11.0602 16.0547 11.0979C16.0263 11.1356 16.012 11.1819 16.014 11.2288ZM15.5738 10.6508C16.0943 10.8242 16.5247 10.6966 16.8653 10.2679C16.9415 10.1715 17.0177 10.0752 17.0939 9.97885C17.4344 9.55175 17.3412 9.25954 16.8142 9.10219C16.1591 8.90791 15.4878 8.87258 14.8003 8.99622C14.7387 9.00734 14.6804 9.03154 14.6292 9.06716C14.578 9.10277 14.5352 9.14895 14.5037 9.20251C14.4723 9.25608 14.453 9.31575 14.4471 9.37743C14.4411 9.43911 14.4488 9.50132 14.4695 9.55978C14.6641 10.1089 15.0322 10.4726 15.5738 10.6508Z" fill="#57AEA7"/>
<path d="M5.83998 11.0915C7.52309 10.711 9.23133 10.5303 10.9647 10.5496C10.9793 10.5496 10.9866 10.5568 10.9866 10.5713V10.6363C10.9882 10.7006 10.9558 10.7319 10.8893 10.7302C9.18351 10.711 7.4931 10.8836 5.8181 11.2481C5.81583 11.2485 5.81349 11.2485 5.81127 11.2481C5.80904 11.2477 5.80697 11.2469 5.80515 11.2457C5.80333 11.2446 5.80182 11.2432 5.8007 11.2415C5.79958 11.2398 5.79862 11.236 5.79862 11.236L5.78648 11.1758C5.78223 11.158 5.78544 11.1392 5.79544 11.1234C5.80545 11.1077 5.82145 11.0962 5.83998 11.0915Z" fill="#57AEA7"/>
<path d="M18.2297 22.7314L19.4531 22.8037C19.4725 22.8053 19.4831 22.8157 19.4847 22.835L19.4871 22.9C19.4886 22.9218 19.4817 22.9434 19.4678 22.9607C19.4539 22.978 19.434 22.9898 19.4117 22.9939C18.9399 23.0774 18.4705 23.1128 18.0035 23.0999C17.8981 23.0983 17.8089 23.1352 17.7359 23.2107C17.4538 23.5045 17.226 23.8144 17.0525 24.1404C16.7476 24.7104 16.8579 24.8059 17.3832 24.427C17.6216 24.2552 17.8146 24.1669 17.9621 24.162C18.4615 24.1428 18.5037 24.2712 18.0886 24.5474C17.8632 24.6951 17.633 24.9095 17.3978 25.1904C16.7541 25.9611 16.4363 25.8463 16.4444 24.846C16.459 22.8037 19.0664 20.7421 20.6741 19.8028C20.747 19.7594 20.8095 19.7722 20.8614 19.8413L20.9027 19.8967C20.9128 19.909 20.9177 19.9247 20.9163 19.9408C20.915 19.9569 20.9075 19.9721 20.8954 19.9834L18.1518 22.5243C18.014 22.6527 18.0399 22.7218 18.2297 22.7314Z" fill="#57AEA7"/>
<path d="M15.462 21.7536C15.4689 21.7533 15.4758 21.7544 15.4823 21.7568C15.4888 21.7592 15.4947 21.7628 15.4997 21.7676C15.5047 21.7723 15.5087 21.778 15.5114 21.7843C15.5141 21.7906 15.5155 21.7974 15.5155 21.8042V21.8307C15.5708 23.7906 15.6089 25.6717 15.6217 27.0659C15.6344 28.4601 15.6208 29.2548 15.5836 29.2776L15.5301 29.28C15.5114 29.2921 15.4874 29.1086 15.4594 28.7402C15.4314 28.3718 15.4 27.8258 15.3669 27.1338C15.3339 26.4418 15.3 25.6176 15.267 24.709C15.2341 23.8003 15.2028 22.8253 15.175 21.8403V21.8139C15.1747 21.8072 15.1757 21.8006 15.1779 21.7943C15.1802 21.788 15.1837 21.7823 15.1882 21.7774C15.1927 21.7724 15.1982 21.7685 15.2043 21.7656C15.2104 21.7628 15.2169 21.7612 15.2236 21.7609L15.462 21.7536Z" fill="#57AEA7"/>
<path d="M8.57134 39.4774C8.73998 39.585 8.91833 39.6886 9.10642 39.7881C9.12705 39.7989 9.14479 39.8143 9.15814 39.8333C9.1715 39.8522 9.18008 39.874 9.18317 39.8969C9.18627 39.9197 9.18381 39.943 9.17596 39.9647C9.1681 39.9865 9.15509 40.006 9.13804 40.0218C9.08778 40.0699 9.01321 40.0763 8.91429 40.041C8.1376 39.7648 7.53357 39.2904 7.10225 38.6176C7.04712 38.5325 7.06092 38.4603 7.14361 38.4009L7.19225 38.3647C7.21112 38.3505 7.23475 38.3441 7.25798 38.3468C7.28121 38.3495 7.30215 38.3611 7.31629 38.3792C7.6714 38.8079 8.08976 39.174 8.57134 39.4774Z" fill="#57AEA7"/>
<path d="M21.1455 39.5691C21.1317 39.5573 21.1314 39.5304 21.1445 39.4901C21.1576 39.4497 21.1839 39.3967 21.2219 39.334C21.2599 39.2713 21.3089 39.2001 21.3659 39.1246C21.423 39.049 21.4871 38.9706 21.5546 38.8937C21.6221 38.8168 21.6916 38.7431 21.7592 38.6766C21.8268 38.6101 21.8912 38.5522 21.9486 38.5062C22.006 38.4602 22.0554 38.4271 22.0939 38.4086C22.1324 38.3901 22.1593 38.3867 22.1731 38.3985C22.1868 38.4103 22.1871 38.4371 22.174 38.4775C22.1609 38.5178 22.1346 38.5709 22.0966 38.6336C22.0586 38.6963 22.0097 38.7675 21.9526 38.843C21.8955 38.9185 21.8314 38.997 21.7639 39.0739C21.6964 39.1507 21.6269 39.2245 21.5593 39.291C21.4917 39.3575 21.4273 39.4154 21.3699 39.4613C21.3125 39.5073 21.2631 39.5405 21.2246 39.559C21.1861 39.5775 21.1592 39.5809 21.1455 39.5691Z" fill="#57AEA7"/>
<path d="M29.423 39.7352C29.3743 39.5442 29.3719 39.3595 29.4157 39.1813C29.44 39.0833 29.47 39.0817 29.5056 39.1765C29.5737 39.3547 29.5803 39.5409 29.5251 39.7352C29.4911 39.8621 29.457 39.8621 29.423 39.7352Z" fill="#57AEA7"/>
<path d="M29.7099 13.252C29.7245 13.3355 29.6766 13.3604 29.5664 13.3267L25.7283 11.725C25.7147 11.7192 25.6998 11.7172 25.6851 11.7192C25.6704 11.7212 25.6565 11.7272 25.6448 11.7366C25.6331 11.7459 25.6241 11.7583 25.6187 11.7724C25.6133 11.7864 25.6116 11.8017 25.614 11.8166C25.6837 12.2436 25.7761 12.6643 25.8913 13.0786C26.1929 14.1648 27.0758 14.8632 27.5257 15.894C28.2457 17.543 28.4054 19.2586 28.0049 21.0409C27.9871 21.1196 27.9976 21.1942 28.0365 21.2649C28.3259 21.7923 28.6859 22.3029 28.8999 22.8328C29.9182 25.3664 30.2296 27.9981 29.8339 30.7276C29.3353 34.1765 28.4232 37.5146 26.0372 40.1278C25.9821 40.1872 25.9902 40.2362 26.0615 40.2747C26.3664 40.4369 26.6818 40.5717 27.0077 40.6793C27.7957 40.937 28.6835 41.8089 28.18 42.6518C28.1378 42.7209 28.0803 42.773 28.0073 42.8084C27.6182 42.9978 27.2752 43.2467 26.9785 43.555C26.9169 43.6192 26.8423 43.6393 26.7547 43.6152L26.2634 43.4851C26.1742 43.4611 26.0907 43.4731 26.0129 43.5213L25.5629 43.8079C25.5256 43.8316 25.482 43.8443 25.4372 43.8443C25.3924 43.8443 25.3483 43.8316 25.3099 43.8079C25.0424 43.6417 24.8162 43.4948 24.483 43.49C23.5977 43.4755 22.4448 43.5213 21.7905 42.8927C21.5635 42.6743 21.3341 42.4592 21.1022 42.2472C21.0438 42.1942 20.9749 42.1621 20.8954 42.1509C19.9242 42.0112 18.9269 41.8763 17.9038 41.7463C14.9559 41.3673 11.9529 41.5158 8.89473 42.1918C8.81852 42.2095 8.7553 42.248 8.70504 42.3074C8.37587 42.712 8.15533 42.9625 8.04344 43.0589C7.15567 43.8247 6.44304 43.6923 5.44339 43.6176C4.98369 43.5815 4.6675 43.7356 4.28807 43.9428C4.18178 44.001 4.05658 44.0155 3.93959 43.983C3.82261 43.9506 3.72322 43.8738 3.66297 43.7694L3.52434 43.5285C3.38165 43.2812 3.20977 43.2596 3.00871 43.4635C2.75413 43.722 2.54575 43.7364 2.3836 43.5068C1.27936 41.9486 3.00628 41.096 4.02053 40.3277C4.08701 40.2763 4.0943 40.2185 4.04241 40.1543C3.88188 39.9592 3.66054 39.8388 3.51947 39.6581C2.08931 37.8325 1.34504 35.8721 0.719956 33.5359C0.121624 31.2976 -0.103771 29.0273 0.043785 26.7248C0.167019 24.8013 0.619435 23.0937 1.401 21.6021C1.55828 21.3034 1.62475 20.9614 1.60043 20.5761C1.48854 18.7874 1.82908 17.1657 2.62199 15.711C2.97466 15.0655 3.43434 14.4851 3.87944 13.8782C4.12915 13.5362 4.28157 13.1797 4.3367 12.8088C4.39832 12.3978 4.43482 11.9956 4.44617 11.6022C4.44941 11.5203 4.41129 11.4914 4.33183 11.5155C3.05896 11.9041 1.81365 12.3601 0.595909 12.8835C0.578073 12.8915 0.564309 12.8859 0.55458 12.8666C0.548094 12.8522 0.55213 12.841 0.566724 12.8329C1.80879 12.1602 3.1149 11.6391 4.48507 11.2698C4.55803 11.2506 4.6083 11.2048 4.63586 11.1326L5.41907 9.03722C5.44826 8.96175 5.42148 8.92081 5.33879 8.91438C4.75343 8.86622 4.17051 8.84133 3.59002 8.83972C3.58515 8.83972 3.58271 8.84214 3.58271 8.84695V8.84935C3.58433 8.85096 3.58758 8.85176 3.58758 8.85176C4.1243 8.79717 4.73883 8.73134 5.43121 8.65427C5.51225 8.64527 5.59007 8.61825 5.65876 8.57527C5.72745 8.53229 5.78522 8.47448 5.82767 8.40621L6.83462 6.77088C6.88884 6.68315 6.90817 6.57859 6.88884 6.47754C6.86951 6.37649 6.81291 6.28617 6.73005 6.22416C5.0291 4.93484 4.76317 3.39825 5.93227 1.6144C7.02921 -0.0594689 9.44441 -0.683253 10.9281 0.968937C11.0529 1.10702 11.194 1.22664 11.3513 1.32779C11.4194 1.37114 11.4932 1.38239 11.5726 1.36151C14.2992 0.636574 16.9455 0.6173 19.6136 1.52047C19.6563 1.53491 19.7029 1.53275 19.744 1.51441C19.7851 1.49607 19.8176 1.46293 19.835 1.42173C20.2371 0.48725 20.8557 0.0304487 21.6908 0.0513219C23.1939 0.0874485 24.3809 1.47231 24.7287 2.87161C25.0821 4.28296 24.6062 5.36114 23.3009 6.10615C23.1323 6.20088 23.095 6.33253 23.189 6.50112C23.7955 7.58813 24.3492 8.63983 24.8503 9.65619C24.8876 9.73165 24.9484 9.7726 25.0327 9.77902C26.6655 9.8882 28.2424 10.2495 29.7634 10.8628C29.7893 10.8725 29.7974 10.8901 29.7877 10.9158L29.7683 10.9736C29.7666 10.9768 29.7634 10.9776 29.7585 10.976C28.4435 10.5505 27.0101 10.2302 25.4583 10.015C25.173 9.9749 25.0781 10.0897 25.1738 10.3594L25.4802 11.2144C25.511 11.3011 25.5702 11.3606 25.6578 11.3927C27.0652 11.9113 28.4159 12.5311 29.7099 13.252ZM20.6814 9.9163C20.6797 9.90549 20.6803 9.89444 20.6831 9.88385C20.6859 9.87326 20.6909 9.86335 20.6977 9.85475C20.7046 9.84616 20.7131 9.83907 20.7229 9.83391C20.7326 9.82875 20.7433 9.82564 20.7544 9.82478L23.6633 9.53335C23.6786 9.5318 23.6931 9.52664 23.7059 9.51829C23.7186 9.50994 23.7292 9.49866 23.7366 9.48542C23.744 9.47217 23.7481 9.45734 23.7484 9.4422C23.7488 9.42706 23.7455 9.41207 23.7387 9.39848L23.3885 8.65668C23.3593 8.59406 23.3098 8.57239 23.2401 8.59166L20.2703 9.47073C20.1958 9.49321 20.1633 9.46592 20.173 9.38885L20.1852 9.30696C20.1868 9.28288 20.199 9.26762 20.2217 9.2612L23.0772 8.43993C23.2393 8.39336 23.2774 8.29863 23.1915 8.15573C22.7707 7.45488 22.3134 6.85758 22.3232 6.04594C22.3248 5.96405 22.2948 5.89741 22.2332 5.84603C22.1505 5.77699 22.0702 5.73604 21.9924 5.7232C21.884 5.70666 21.7826 5.66034 21.7 5.58959C21.6174 5.51884 21.5568 5.42656 21.5254 5.3234C21.2546 4.44834 20.983 3.59494 20.7106 2.76323C20.6859 2.68844 20.6428 2.62075 20.5851 2.56615C20.5274 2.51155 20.4569 2.47171 20.3798 2.45013C17.4854 1.62645 14.844 1.24591 11.8913 1.99735C11.5581 2.08164 11.1397 2.10331 10.8916 1.91545C10.0184 1.25795 9.25958 0.506516 8.05805 0.756993C8.03341 0.761739 8.01144 0.77529 7.99656 0.794934C7.98168 0.814578 7.97497 0.83887 7.97777 0.862965L7.98507 0.925587C7.98831 0.951277 8.00373 0.963311 8.0313 0.961705C9.01393 0.889452 9.53766 1.30853 9.60252 2.21892C9.6917 3.46007 9.32768 4.59123 8.51044 5.6124C8.45207 5.68466 8.37506 5.72401 8.27939 5.73043C8.03941 5.74649 7.81076 5.79947 7.59348 5.88938C7.57126 5.89829 7.55109 5.91156 7.53419 5.9284C7.51729 5.94523 7.50401 5.96529 7.49515 5.98734C7.48628 6.0094 7.48202 6.033 7.48262 6.05673C7.48322 6.08046 7.48866 6.10381 7.49862 6.1254C7.73941 6.6384 7.74915 7.01413 7.38431 7.50545C7.0892 7.89883 6.80137 8.30987 6.52085 8.73857C6.50733 8.75909 6.4994 8.78272 6.49781 8.80716C6.49623 8.83161 6.50106 8.85604 6.51183 8.87809C6.5226 8.90014 6.53894 8.91907 6.55927 8.93302C6.57961 8.94698 6.60325 8.95549 6.62789 8.95773C8.07102 9.07334 9.54172 9.24273 11.04 9.46591C11.0578 9.46912 11.0659 9.47956 11.0643 9.49722L11.0546 9.56467C11.054 9.57092 11.0521 9.57699 11.049 9.5825C11.046 9.588 11.0418 9.59283 11.0368 9.59667C11.0318 9.60051 11.026 9.60329 11.0199 9.60483C11.0137 9.60636 11.0073 9.60662 11.0011 9.60561C9.85304 9.44825 8.70826 9.31419 7.56673 9.2034C7.24243 9.17129 6.91247 9.11027 6.57682 9.02036C6.49899 8.99948 6.44384 9.02598 6.41141 9.09984C6.09522 9.82077 5.77821 10.5417 5.4604 11.2626C5.15394 11.9611 5.14664 12.6282 5.06638 13.3556C5.0426 13.569 4.95537 13.7702 4.81585 13.9336C3.27867 15.7447 2.33741 17.4547 2.49307 19.9475C2.5709 21.2143 3.47812 22.6256 4.18834 23.6589C4.75262 24.4801 5.20989 24.9666 6.10738 25.0028C7.06082 25.0397 8.01427 25.0269 8.96771 24.9642C9.86277 24.904 10.7311 25.5254 11.4753 25.9493C11.9229 26.2046 12.2488 25.8987 12.7231 26.1251C12.809 26.1669 12.8512 26.1404 12.8496 26.0456C12.8496 26.0007 12.8301 25.9549 12.7912 25.9083C12.5058 25.5696 12.2812 25.3086 12.1175 25.1256C11.7721 24.7386 11.8548 24.6014 12.3655 24.7138C12.7547 24.8005 13.1293 25.2725 13.6279 24.8992C13.696 24.8494 13.7017 24.794 13.6449 24.733C13.4422 24.5163 13.2257 24.3148 12.9955 24.1285C12.9225 24.0691 12.8771 24.0113 12.8593 23.9551C12.8317 23.8684 12.8431 23.7945 12.8934 23.7335C12.9452 23.6677 13.0109 23.6508 13.0904 23.6829C13.2266 23.7359 13.3692 23.7616 13.5184 23.76C13.6092 23.76 13.6384 23.7183 13.606 23.6348C13.5687 23.5336 13.503 23.4541 13.409 23.3963C13.3393 23.3514 13.2639 23.3369 13.1828 23.353C12.5796 23.4734 11.9918 23.418 11.4194 23.1868C11.3884 23.1743 11.3612 23.154 11.3407 23.1277C11.3202 23.1015 11.3071 23.0704 11.3027 23.0375C11.2929 22.9508 11.3448 22.9114 11.4583 22.9195C11.961 22.9548 12.4134 23.0038 12.8155 23.0664C13.0101 23.0953 13.032 23.0479 12.8812 22.9243C11.7186 21.9545 10.5422 20.9967 9.35199 20.051C9.30172 20.0109 9.27823 19.9659 9.28148 19.9161C9.28335 19.8972 9.2893 19.8789 9.29896 19.8625C9.30862 19.846 9.32175 19.8318 9.33744 19.8209C9.35314 19.8099 9.37103 19.8024 9.38991 19.7989C9.40878 19.7954 9.42821 19.796 9.44685 19.8005C9.76142 19.8776 10.063 20.0133 10.3516 20.2076C11.2467 20.8113 12.1361 21.4945 13.0198 22.2572C13.3166 22.5124 13.5784 22.795 13.8054 23.1049C13.8531 23.1694 13.8809 23.2463 13.8857 23.3265C13.9165 23.805 14.0414 24.2923 14.2603 24.7884C14.2878 24.8502 14.301 24.9173 14.299 24.9848C14.2969 25.0524 14.2796 25.1186 14.2484 25.1786C14.2171 25.2387 14.1727 25.291 14.1184 25.3318C14.064 25.3727 14.0012 25.401 13.9344 25.4146C13.7673 25.4499 13.5922 25.4331 13.409 25.364C13.2663 25.311 13.2395 25.3456 13.3287 25.4676C13.6141 25.8594 13.6101 26.1741 13.3166 26.4117C12.6939 26.9175 11.9715 26.9392 11.1494 26.4767C10.5097 26.1155 9.72899 25.5037 8.96284 25.5375C7.98021 25.584 7.13703 25.6089 6.4333 25.6121C5.37527 25.6193 4.83288 25.3881 4.18347 24.6271C3.25922 23.5465 2.62848 22.4306 2.29121 21.2793C2.26688 21.1942 2.23767 21.1926 2.20362 21.2745C1.33288 23.3602 0.858594 25.4788 0.780762 27.6304C0.666447 30.8408 1.55909 34.1669 2.92358 37.1413C3.76028 38.9621 4.73559 40.4601 6.61572 41.1538C7.21405 41.3754 7.92671 41.3585 8.58099 41.373C9.02852 41.3842 9.51982 41.332 10.0549 41.2164C13.3125 40.5067 16.5774 40.5027 19.8496 41.2044C20.4406 41.3296 20.9781 41.32 21.5789 41.3489C21.9145 41.3665 22.692 41.1096 23.9114 40.5782C24.2892 40.4128 24.6711 40.2426 25.057 40.0676C25.3813 39.9215 25.631 39.7256 25.8061 39.4799C28.1849 36.1731 29.2599 32.2522 29.2502 28.2566C29.2437 26.2495 28.7062 24.1462 27.6376 21.9465C27.6019 21.871 27.572 21.8734 27.5476 21.9537C27.2922 22.8593 26.4045 24.7089 25.2783 24.7836C24.3038 24.8462 23.3244 24.9466 22.3402 25.0847C21.8343 25.1545 21.4232 25.1979 20.9733 25.511C20.2266 26.0288 19.0615 26.8886 18.3878 26.6526C17.997 26.5161 17.6216 26.382 17.2617 26.2503C17.2291 26.2387 17.1997 26.2201 17.1754 26.1957C17.1511 26.1713 17.1326 26.1418 17.1212 26.1093C17.1098 26.0768 17.1058 26.0422 17.1095 26.0078C17.1131 25.9735 17.1244 25.9403 17.1425 25.9108C17.4392 25.4291 17.877 25.1232 18.4559 24.9931C18.4926 24.9852 18.5309 24.991 18.5633 25.0092C18.5957 25.0275 18.6198 25.057 18.631 25.0919C18.6391 25.1192 18.6424 25.1457 18.6407 25.1714C18.6343 25.2549 18.5921 25.3135 18.5143 25.3472C18.331 25.4275 18.1956 25.5631 18.1081 25.7542C18.0724 25.8313 18.0943 25.8835 18.1737 25.9108C18.7607 26.1115 19.2577 26.0496 19.6647 25.7253C20.6636 24.9321 21.677 24.4954 22.705 24.4151C23.5223 24.3509 24.3403 24.2907 25.1591 24.2345C25.7477 24.1935 25.8694 23.9358 26.1515 23.4951C27.82 20.9012 28.0535 17.5992 26.1345 15.1017C25.5734 14.3743 25.2589 13.8244 25.1908 13.4519C25.0773 12.8177 24.9127 12.1907 24.697 11.5709C24.6711 11.4938 24.6184 11.4441 24.5389 11.4216C23.4801 11.1165 22.2818 10.8684 20.9441 10.6774C20.8225 10.6597 20.7244 10.5995 20.6498 10.4967C20.5963 10.4229 20.6149 10.3916 20.7057 10.4028C22.0305 10.5714 23.2928 10.8235 24.4927 11.1591C24.6192 11.1944 24.6565 11.1518 24.6046 11.0314C24.4522 10.6669 24.2649 10.3153 24.0428 9.97651C24.01 9.92561 23.9647 9.88384 23.911 9.85518C23.8574 9.82652 23.7972 9.8119 23.7363 9.81273C22.7828 9.82397 21.7751 9.89383 20.713 10.0223C20.7017 10.0223 20.6952 10.0174 20.6935 10.0078L20.6814 9.9163ZM22.5177 1.12789C22.5206 1.12739 22.5234 1.12624 22.5258 1.12455C22.5282 1.12286 22.5301 1.12068 22.5314 1.11825C22.5326 1.11581 22.5331 1.11319 22.5328 1.11066C22.5326 1.10813 22.5316 1.10577 22.5299 1.10381C22.3499 0.842092 22.0856 0.752984 21.737 0.836476C20.9781 1.01791 20.6052 1.50281 20.6182 2.29117C20.6198 2.37145 20.6465 2.42926 20.6984 2.46458C20.7763 2.51596 20.8249 2.49668 20.8443 2.40677C21.0227 1.59272 21.5805 1.16642 22.5177 1.12789ZM21.2895 3.34366C21.4573 3.90482 21.9146 5.22224 22.418 5.48235C23.1307 5.85325 23.9187 4.90673 24.1036 4.34797C24.4806 3.21119 23.7436 1.97808 22.8096 1.30613C22.6961 1.22584 22.5429 1.20497 22.3499 1.2435C21.1387 1.49398 20.9684 2.25745 21.2895 3.34366ZM9.10149 1.90582C9.0496 1.6987 8.93772 1.55579 8.76584 1.47712C7.88861 1.07731 7.15406 1.2411 6.56221 1.96845C5.98983 2.6685 5.81388 3.43438 6.03441 4.26609C6.39438 5.62446 7.90237 5.95682 8.68556 4.73092C9.22714 3.88154 9.3658 2.93985 9.10149 1.90582ZM25.417 41.8474C25.4228 41.7829 25.4468 41.7214 25.4862 41.6697C25.5255 41.618 25.5787 41.5782 25.6397 41.5549C25.7007 41.5316 25.7671 41.5257 25.8313 41.5378C25.8955 41.5499 25.9551 41.5796 26.0032 41.6234L26.7717 42.3146C26.8175 42.3555 26.8724 42.3847 26.9317 42.3998C26.991 42.415 27.053 42.4155 27.1122 42.4013C27.2355 42.3741 27.3303 42.3227 27.3968 42.2472C27.4199 42.2213 27.4373 42.191 27.448 42.1581C27.4588 42.1252 27.4625 42.0904 27.4591 42.0559C27.4557 42.0214 27.4452 41.9879 27.4282 41.9574C27.4112 41.9269 27.3881 41.9001 27.3603 41.8787C26.7588 41.4211 26.1053 41.039 25.3999 40.7323C25.331 40.702 25.2566 40.6864 25.1816 40.6864C25.1066 40.6864 25.0327 40.702 24.9646 40.7323C23.9252 41.1851 22.8696 41.4821 21.7978 41.6234C21.7119 41.6347 21.6892 41.678 21.7297 41.7535C22.5104 43.2202 23.6487 42.3941 24.8527 42.8228C25.1527 42.9304 25.4656 42.9698 25.7916 42.9408C26.0186 42.9216 26.0494 42.8349 25.884 42.6807C25.55 42.3676 25.3943 42.0899 25.417 41.8474ZM4.73073 42.1918L4.29294 42.7723C3.99296 43.1672 4.07485 43.2732 4.5386 43.0902C4.99748 42.9103 5.50986 42.8558 6.07576 42.9264C6.90516 43.0324 7.66646 42.8397 8.09454 42.0666C8.10866 42.0411 8.11556 42.0123 8.11449 41.9832C8.11343 41.9541 8.10443 41.9259 8.08848 41.9014C8.07253 41.877 8.05021 41.8573 8.02388 41.8444C7.99754 41.8315 7.96817 41.8259 7.93887 41.8282C7.4354 41.8643 7.00244 41.8739 6.52085 41.6427C5.95333 41.3713 5.38906 41.0976 4.82802 40.8214C4.75505 40.7861 4.68289 40.7893 4.61155 40.8311C3.93701 41.2276 3.32732 41.7302 2.78249 42.3387C2.76769 42.355 2.7565 42.3742 2.74966 42.395C2.74281 42.4159 2.74048 42.4379 2.74277 42.4597C2.74506 42.4815 2.75195 42.5026 2.76299 42.5215C2.77402 42.5405 2.78896 42.557 2.80684 42.5699C2.95926 42.6791 3.0906 42.7024 3.20086 42.6398C3.25275 42.6093 3.30787 42.5274 3.36624 42.3941C3.60298 41.8482 4.02943 41.686 4.6456 41.9076C4.67307 41.9177 4.69782 41.934 4.71784 41.9552C4.73786 41.9763 4.75258 42.0017 4.76086 42.0294C4.76914 42.057 4.77073 42.0861 4.76549 42.1143C4.76026 42.1426 4.74835 42.1691 4.73073 42.1918ZM3.49516 42.5434C3.45948 42.582 3.4384 42.6069 3.43191 42.6181C3.34922 42.7931 3.3922 42.8309 3.56083 42.7313C3.76352 42.6125 3.9054 42.4696 3.98647 42.3026C4.1243 42.0168 4.05699 41.9574 3.78458 42.1244C3.6654 42.1966 3.62406 42.4134 3.49516 42.5434Z" stroke="#57AEA7" stroke-width="4" mask="url(#path-1-inside-1_200_1840)"/>
<path d="M12.866 5.37786C13.1045 5.6293 13.2144 5.98092 13.1715 6.35536C13.1286 6.7298 12.9365 7.09638 12.6375 7.37448C12.4894 7.51218 12.3195 7.62401 12.1375 7.70358C11.9555 7.78316 11.765 7.82892 11.5768 7.83825C11.3886 7.84758 11.2064 7.82032 11.0407 7.75799C10.8749 7.69566 10.7288 7.59948 10.6107 7.47498C10.3723 7.22354 10.2624 6.87193 10.3053 6.49749C10.3481 6.12306 10.5402 5.75646 10.8393 5.47836C10.9874 5.34066 11.1573 5.22883 11.3393 5.14926C11.5213 5.06968 11.7118 5.02392 11.9 5.01459C12.0882 5.00526 12.2704 5.03254 12.4361 5.09487C12.6019 5.1572 12.748 5.25336 12.866 5.37786ZM12.0178 6.10151C12.0436 6.08237 12.0647 6.05743 12.0798 6.02812C12.0949 5.99882 12.1037 5.9657 12.1057 5.93068C12.1077 5.89566 12.1029 5.85942 12.0916 5.82402C12.0803 5.78861 12.0626 5.75476 12.0397 5.72436C11.9933 5.66299 11.9281 5.61949 11.8584 5.60341C11.7888 5.58734 11.7203 5.60001 11.6681 5.63865C11.6423 5.65778 11.6213 5.68272 11.6062 5.71203C11.5911 5.74134 11.5823 5.77444 11.5803 5.80946C11.5782 5.84448 11.583 5.88074 11.5943 5.91614C11.6057 5.95154 11.6233 5.9854 11.6463 6.01579C11.6926 6.07716 11.7578 6.12067 11.8275 6.13674C11.8972 6.15282 11.9656 6.14015 12.0178 6.10151Z" stroke="#57AEA7" stroke-width="4" mask="url(#path-1-inside-1_200_1840)"/>
<path d="M20.1613 7.95661C19.8806 8.11645 19.5311 8.13161 19.1898 7.99874C18.8485 7.86587 18.5434 7.59586 18.3414 7.24812C18.1395 6.90037 18.0573 6.50338 18.113 6.14446C18.1688 5.78554 18.3578 5.4941 18.6385 5.33426C18.9192 5.17441 19.2686 5.15926 19.6099 5.29213C19.9512 5.42499 20.2564 5.695 20.4584 6.04275C20.6603 6.3905 20.7424 6.78749 20.6867 7.14641C20.631 7.50533 20.442 7.79677 20.1613 7.95661ZM18.53 6.49514C18.5592 6.51155 18.5924 6.52015 18.6279 6.52047C18.6633 6.52079 18.7003 6.51281 18.7366 6.49699C18.773 6.48117 18.808 6.45782 18.8397 6.42827C18.8714 6.39872 18.8992 6.36355 18.9215 6.32477C18.9664 6.24646 18.9861 6.15819 18.9762 6.0794C18.9663 6.0006 18.9277 5.93773 18.8688 5.9046C18.8397 5.88819 18.8064 5.87959 18.7709 5.87927C18.7355 5.87895 18.6985 5.88693 18.6622 5.90275C18.6258 5.91857 18.5908 5.94192 18.5591 5.97147C18.5273 6.00102 18.4996 6.03619 18.4774 6.07497C18.4324 6.15328 18.4127 6.24155 18.4226 6.32034C18.4325 6.39914 18.4711 6.46201 18.53 6.49514Z" stroke="#57AEA7" stroke-width="4" mask="url(#path-1-inside-1_200_1840)"/>
<path d="M16.014 11.2288C16.0359 11.8165 15.9264 12.7871 16.4591 13.158C17.1207 13.6188 17.8909 13.7087 18.7697 13.4277C18.9546 13.3683 19.004 13.4253 18.9181 13.5987C18.7867 13.8621 18.5289 14.0355 18.1446 14.119C17.5739 14.2426 16.9172 14.1182 16.1745 13.7457C16.0869 13.7023 16.0059 13.7111 15.9313 13.7721C15.4205 14.1896 14.7516 14.3606 13.9247 14.2851C13.7333 14.2675 13.5323 14.1744 13.3215 14.0058C13.2712 13.9672 13.2315 13.9175 13.2023 13.8564C13.0985 13.6333 13.1691 13.5361 13.4139 13.565C15.4497 13.8083 16.0286 12.9509 15.7221 11.2481C15.7075 11.1662 15.6621 11.11 15.5859 11.0795C15.0184 10.8451 14.609 10.4919 14.3576 10.0198C14.0949 9.52206 14.1387 9.15035 14.4889 8.90469C15.0508 8.5073 16.2037 8.66385 16.8677 8.81558C17.6509 8.99381 17.6703 9.66093 17.2982 10.2197C17.0226 10.6323 16.6464 10.8997 16.1696 11.0217C16.1236 11.0333 16.083 11.0602 16.0547 11.0979C16.0263 11.1356 16.012 11.1819 16.014 11.2288ZM15.5738 10.6508C16.0943 10.8242 16.5247 10.6966 16.8653 10.2679C16.9415 10.1715 17.0177 10.0752 17.0939 9.97885C17.4344 9.55175 17.3412 9.25954 16.8142 9.10219C16.1591 8.90791 15.4878 8.87258 14.8003 8.99622C14.7387 9.00734 14.6804 9.03154 14.6292 9.06716C14.578 9.10277 14.5352 9.14895 14.5037 9.20251C14.4723 9.25608 14.453 9.31575 14.4471 9.37743C14.4411 9.43911 14.4488 9.50132 14.4695 9.55978C14.6641 10.1089 15.0322 10.4726 15.5738 10.6508Z" stroke="#57AEA7" stroke-width="4" mask="url(#path-1-inside-1_200_1840)"/>
<path d="M5.83998 11.0915C7.52309 10.711 9.23133 10.5303 10.9647 10.5496C10.9793 10.5496 10.9866 10.5568 10.9866 10.5713V10.6363C10.9882 10.7006 10.9558 10.7319 10.8893 10.7302C9.18351 10.711 7.4931 10.8836 5.8181 11.2481C5.81583 11.2485 5.81349 11.2485 5.81127 11.2481C5.80904 11.2477 5.80697 11.2469 5.80515 11.2457C5.80333 11.2446 5.80182 11.2432 5.8007 11.2415C5.79958 11.2398 5.79862 11.236 5.79862 11.236L5.78648 11.1758C5.78223 11.158 5.78544 11.1392 5.79544 11.1234C5.80545 11.1077 5.82145 11.0962 5.83998 11.0915Z" stroke="#57AEA7" stroke-width="4" mask="url(#path-1-inside-1_200_1840)"/>
<path d="M18.2297 22.7314L19.4531 22.8037C19.4725 22.8053 19.4831 22.8157 19.4847 22.835L19.4871 22.9C19.4886 22.9218 19.4817 22.9434 19.4678 22.9607C19.4539 22.978 19.434 22.9898 19.4117 22.9939C18.9399 23.0774 18.4705 23.1128 18.0035 23.0999C17.8981 23.0983 17.8089 23.1352 17.7359 23.2107C17.4538 23.5045 17.226 23.8144 17.0525 24.1404C16.7476 24.7104 16.8579 24.8059 17.3832 24.427C17.6216 24.2552 17.8146 24.1669 17.9621 24.162C18.4615 24.1428 18.5037 24.2712 18.0886 24.5474C17.8632 24.6951 17.633 24.9095 17.3978 25.1904C16.7541 25.9611 16.4363 25.8463 16.4444 24.846C16.459 22.8037 19.0664 20.7421 20.6741 19.8028C20.747 19.7594 20.8095 19.7722 20.8614 19.8413L20.9027 19.8967C20.9128 19.909 20.9177 19.9247 20.9163 19.9408C20.915 19.9569 20.9075 19.9721 20.8954 19.9834L18.1518 22.5243C18.014 22.6527 18.0399 22.7218 18.2297 22.7314Z" stroke="#57AEA7" stroke-width="4" mask="url(#path-1-inside-1_200_1840)"/>
<path d="M15.462 21.7536C15.4689 21.7533 15.4758 21.7544 15.4823 21.7568C15.4888 21.7592 15.4947 21.7628 15.4997 21.7676C15.5047 21.7723 15.5087 21.778 15.5114 21.7843C15.5141 21.7906 15.5155 21.7974 15.5155 21.8042V21.8307C15.5708 23.7906 15.6089 25.6717 15.6217 27.0659C15.6344 28.4601 15.6208 29.2548 15.5836 29.2776L15.5301 29.28C15.5114 29.2921 15.4874 29.1086 15.4594 28.7402C15.4314 28.3718 15.4 27.8258 15.3669 27.1338C15.3339 26.4418 15.3 25.6176 15.267 24.709C15.2341 23.8003 15.2028 22.8253 15.175 21.8403V21.8139C15.1747 21.8072 15.1757 21.8006 15.1779 21.7943C15.1802 21.788 15.1837 21.7823 15.1882 21.7774C15.1927 21.7724 15.1982 21.7685 15.2043 21.7656C15.2104 21.7628 15.2169 21.7612 15.2236 21.7609L15.462 21.7536Z" stroke="#57AEA7" stroke-width="4" mask="url(#path-1-inside-1_200_1840)"/>
<path d="M8.57134 39.4774C8.73998 39.585 8.91833 39.6886 9.10642 39.7881C9.12705 39.7989 9.14479 39.8143 9.15814 39.8333C9.1715 39.8522 9.18008 39.874 9.18317 39.8969C9.18627 39.9197 9.18381 39.943 9.17596 39.9647C9.1681 39.9865 9.15509 40.006 9.13804 40.0218C9.08778 40.0699 9.01321 40.0763 8.91429 40.041C8.1376 39.7648 7.53357 39.2904 7.10225 38.6176C7.04712 38.5325 7.06092 38.4603 7.14361 38.4009L7.19225 38.3647C7.21112 38.3505 7.23475 38.3441 7.25798 38.3468C7.28121 38.3495 7.30215 38.3611 7.31629 38.3792C7.6714 38.8079 8.08976 39.174 8.57134 39.4774Z" stroke="#57AEA7" stroke-width="4" mask="url(#path-1-inside-1_200_1840)"/>
<path d="M21.1455 39.5691C21.1317 39.5573 21.1314 39.5304 21.1445 39.4901C21.1576 39.4497 21.1839 39.3967 21.2219 39.334C21.2599 39.2713 21.3089 39.2001 21.3659 39.1246C21.423 39.049 21.4871 38.9706 21.5546 38.8937C21.6221 38.8168 21.6916 38.7431 21.7592 38.6766C21.8268 38.6101 21.8912 38.5522 21.9486 38.5062C22.006 38.4602 22.0554 38.4271 22.0939 38.4086C22.1324 38.3901 22.1593 38.3867 22.1731 38.3985C22.1868 38.4103 22.1871 38.4371 22.174 38.4775C22.1609 38.5178 22.1346 38.5709 22.0966 38.6336C22.0586 38.6963 22.0097 38.7675 21.9526 38.843C21.8955 38.9185 21.8314 38.997 21.7639 39.0739C21.6964 39.1507 21.6269 39.2245 21.5593 39.291C21.4917 39.3575 21.4273 39.4154 21.3699 39.4613C21.3125 39.5073 21.2631 39.5405 21.2246 39.559C21.1861 39.5775 21.1592 39.5809 21.1455 39.5691Z" stroke="#57AEA7" stroke-width="4" mask="url(#path-1-inside-1_200_1840)"/>
<path d="M29.423 39.7352C29.3743 39.5442 29.3719 39.3595 29.4157 39.1813C29.44 39.0833 29.47 39.0817 29.5056 39.1765C29.5737 39.3547 29.5803 39.5409 29.5251 39.7352C29.4911 39.8621 29.457 39.8621 29.423 39.7352Z" stroke="#57AEA7" stroke-width="4" mask="url(#path-1-inside-1_200_1840)"/>
</svg>
