<svg width="58" height="48" viewBox="0 0 58 48" fill="none" xmlns="http://www.w3.org/2000/svg">
<path d="M22.0086 17.9212C25.2024 16.8133 26.5558 12.3525 25.0314 7.95761C23.5069 3.56274 19.682 0.89808 16.4881 2.00593C13.2942 3.11378 11.9409 7.57462 13.4653 11.9695C14.9898 16.3644 18.8147 19.029 22.0086 17.9212Z" fill="white"/>
<path d="M11.4636 26.1033C13.733 24.6222 13.9265 20.8989 11.8956 17.7872C9.8648 14.6754 6.37871 13.3536 4.10924 14.8347C1.83977 16.3158 1.64632 20.0391 3.67717 23.1509C5.70801 26.2626 9.19411 27.5845 11.4636 26.1033Z" fill="white"/>
<path d="M44.5196 11.9846C46.0441 7.58972 44.6907 3.12888 41.4969 2.02103C38.303 0.913177 34.478 3.57783 32.9536 7.97271C31.4292 12.3676 32.7825 16.8284 35.9764 17.9363C39.1702 19.0441 42.9952 16.3795 44.5196 11.9846Z" fill="white"/>
<path d="M54.3234 23.1749C56.3542 20.0632 56.1608 16.3399 53.8913 14.8587C51.6218 13.3776 48.1357 14.6995 46.1049 17.8112C44.0741 20.923 44.2675 24.6462 46.537 26.1274C48.8064 27.6085 52.2925 26.2866 54.3234 23.1749Z" fill="white"/>
<path d="M29.0581 21.1379C18.0301 21.1379 9.07617 33.7594 9.07617 43.0421C9.07617 50.6555 15.0707 46.5579 23.3164 44.838C23.19 44.7368 23.0635 44.6356 22.9117 44.5344C12.7184 37.2752 17.4483 31.0277 17.4483 31.0277C18.6624 29.0801 20.8377 27.7648 23.3164 27.7648C25.7446 27.7648 27.844 29.0295 29.0834 30.9265C30.3227 29.0295 32.4474 27.7901 34.8503 27.8154C36.7726 27.8154 38.4926 28.6248 39.7319 29.8895C39.7319 29.8895 39.8837 30.0412 40.1113 30.3195C40.1366 30.3448 40.1619 30.3953 40.1872 30.4206C40.2378 30.4965 40.2884 30.5724 40.3643 30.6483C40.7437 31.1541 41.0219 31.7106 41.2495 32.3177C41.2748 32.3935 41.3001 32.4694 41.3254 32.5453C41.3254 32.5959 41.376 32.6465 41.376 32.7223C42.2107 35.3529 41.9072 39.6275 35.432 44.7115C35.3309 44.7874 35.255 44.8632 35.1538 44.9391C43.1719 46.7097 48.9894 50.5543 48.9894 43.0674C48.9894 33.7847 40.0355 21.1632 29.0075 21.1632L29.0581 21.1379Z" fill="white"/>
</svg>
