<svg width="35" height="28" viewBox="0 0 35 28" fill="none" xmlns="http://www.w3.org/2000/svg">
<g clip-path="url(#clip0_62_1061)">
<path d="M6.34381 27.1222V25.3183C6.34381 24.6282 5.92347 24.1764 5.20189 24.1764C4.84111 24.1764 4.44879 24.2955 4.17908 24.6878C3.96891 24.3585 3.66767 24.1764 3.21581 24.1764C2.91456 24.1764 2.61332 24.2674 2.37513 24.5967V24.2359H1.74463V27.1222H2.37513V25.5284C2.37513 25.017 2.64485 24.7753 3.06519 24.7753C3.48552 24.7753 3.69569 25.0451 3.69569 25.5284V27.1222H4.32619V25.5284C4.32619 25.017 4.62743 24.7753 5.01625 24.7753C5.43658 24.7753 5.64675 25.0451 5.64675 25.5284V27.1222H6.34381ZM15.6963 24.2359H14.6735V23.3637H14.043V24.2359H13.472V24.8069H14.043V26.1309C14.043 26.793 14.3127 27.1818 15.0343 27.1818C15.304 27.1818 15.6052 27.0907 15.8154 26.9716L15.6332 26.4287C15.4511 26.5478 15.2409 26.5793 15.0903 26.5793C14.7891 26.5793 14.67 26.3971 14.67 26.0994V24.8069H15.6928V24.2359H15.6963ZM21.0486 24.1729C20.6878 24.1729 20.4461 24.355 20.2955 24.5932V24.2324H19.665V27.1187H20.2955V25.4934C20.2955 25.0135 20.5056 24.7403 20.898 24.7403C21.017 24.7403 21.1677 24.7718 21.2903 24.7999L21.4724 24.1974C21.3463 24.1729 21.1677 24.1729 21.0486 24.1729ZM12.9606 24.4741C12.6594 24.2639 12.239 24.1729 11.7872 24.1729C11.0656 24.1729 10.5857 24.5336 10.5857 25.1046C10.5857 25.5845 10.9465 25.8577 11.577 25.9453L11.8782 25.9768C12.2075 26.0363 12.3896 26.1274 12.3896 26.278C12.3896 26.4882 12.148 26.6388 11.7276 26.6388C11.3073 26.6388 10.9745 26.4882 10.7643 26.3376L10.4631 26.8175C10.7924 27.0592 11.2442 27.1783 11.6961 27.1783C12.5368 27.1783 13.0202 26.7859 13.0202 26.2465C13.0202 25.7351 12.6278 25.4654 12.0289 25.3743L11.7276 25.3428C11.4579 25.3113 11.2477 25.2517 11.2477 25.0731C11.2477 24.8629 11.4579 24.7438 11.7907 24.7438C12.1515 24.7438 12.5122 24.8944 12.6944 24.9855L12.9606 24.4741ZM29.7355 24.1729C29.3747 24.1729 29.133 24.355 28.9824 24.5932V24.2324H28.3519V27.1187H28.9824V25.4934C28.9824 25.0135 29.1926 24.7403 29.5849 24.7403C29.704 24.7403 29.8546 24.7718 29.9772 24.7999L30.1594 24.2044C30.0368 24.1729 29.8581 24.1729 29.7355 24.1729ZM21.6791 25.6791C21.6791 26.5513 22.2816 27.1818 23.2133 27.1818C23.6336 27.1818 23.9349 27.0907 24.2361 26.8525L23.9349 26.3411C23.6932 26.5232 23.455 26.6108 23.1818 26.6108C22.6704 26.6108 22.3096 26.25 22.3096 25.6791C22.3096 25.1361 22.6704 24.7753 23.1818 24.7473C23.4515 24.7473 23.6932 24.8384 23.9349 25.017L24.2361 24.5056C23.9349 24.2639 23.6336 24.1764 23.2133 24.1764C22.2816 24.1729 21.6791 24.8069 21.6791 25.6791ZM27.5112 25.6791V24.2359H26.8807V24.5967C26.6706 24.327 26.3693 24.1764 25.977 24.1764C25.1644 24.1764 24.5339 24.8069 24.5339 25.6791C24.5339 26.5513 25.1644 27.1818 25.977 27.1818C26.3974 27.1818 26.6986 27.0311 26.8807 26.7614V27.1222H27.5112V25.6791ZM25.1959 25.6791C25.1959 25.1677 25.5252 24.7473 26.0681 24.7473C26.5795 24.7473 26.9403 25.1396 26.9403 25.6791C26.9403 26.1905 26.5795 26.6108 26.0681 26.6108C25.5287 26.5793 25.1959 26.187 25.1959 25.6791ZM17.6509 24.1729C16.8102 24.1729 16.2077 24.7753 16.2077 25.6756C16.2077 26.5793 16.8102 27.1783 17.6824 27.1783C18.1027 27.1783 18.5231 27.0592 18.8558 26.7859L18.5546 26.3341C18.3129 26.5162 18.0116 26.6353 17.7139 26.6353C17.3216 26.6353 16.9328 26.4532 16.8417 25.9453H18.9749C18.9749 25.8542 18.9749 25.7947 18.9749 25.7036C19.0029 24.7753 18.46 24.1729 17.6509 24.1729ZM17.6509 24.7158C18.0432 24.7158 18.3129 24.9575 18.3724 25.4058H16.8697C16.9293 25.017 17.199 24.7158 17.6509 24.7158ZM33.3154 25.6791V23.094H32.6849V24.5967C32.4747 24.327 32.1735 24.1764 31.7812 24.1764C30.9685 24.1764 30.338 24.8069 30.338 25.6791C30.338 26.5513 30.9685 27.1818 31.7812 27.1818C32.2015 27.1818 32.5027 27.0311 32.6849 26.7614V27.1222H33.3154V25.6791ZM31 25.6791C31 25.1677 31.3293 24.7473 31.8722 24.7473C32.3836 24.7473 32.7444 25.1396 32.7444 25.6791C32.7444 26.1905 32.3836 26.6108 31.8722 26.6108C31.3293 26.5793 31 26.187 31 25.6791ZM9.89215 25.6791V24.2359H9.26164V24.5967C9.05147 24.327 8.75023 24.1764 8.35792 24.1764C7.54527 24.1764 6.91476 24.8069 6.91476 25.6791C6.91476 26.5513 7.54527 27.1818 8.35792 27.1818C8.77826 27.1818 9.0795 27.0311 9.26164 26.7614V27.1222H9.89215V25.6791ZM7.54877 25.6791C7.54877 25.1677 7.87804 24.7473 8.42097 24.7473C8.93238 24.7473 9.29317 25.1396 9.29317 25.6791C9.29317 26.1905 8.93238 26.6108 8.42097 26.6108C7.87804 26.5793 7.54877 26.187 7.54877 25.6791Z" fill="#324B49"/>
<path d="M22.2216 2.31537H12.75V19.332H22.2216V2.31537Z" fill="#324B49"/>
<path d="M13.3807 10.8237C13.3807 7.36639 15.006 4.29794 17.5 2.31535C15.6645 0.872198 13.3492 0 10.8237 0C4.84087 0 0 4.84087 0 10.8237C0 16.8064 4.84087 21.6473 10.8237 21.6473C13.3492 21.6473 15.6645 20.7751 17.5 19.332C15.0025 17.3774 13.3807 14.2809 13.3807 10.8237Z" fill="#AAD5D1"/>
<path d="M35 10.8237C35 16.8064 30.1591 21.6473 24.1763 21.6473C21.6508 21.6473 19.3355 20.7751 17.5 19.332C20.0255 17.3459 21.6193 14.2809 21.6193 10.8237C21.6193 7.36639 19.994 4.29794 17.5 2.31535C19.332 0.872198 21.6473 0 24.1728 0C30.1591 0 35 4.8724 35 10.8237Z" fill="#ABE7E2"/>
</g>
<defs>
<clipPath id="clip0_62_1061">
<rect width="35" height="27.1817" fill="white"/>
</clipPath>
</defs>
</svg>
