<svg width="70" height="19" viewBox="0 0 70 19" fill="none" xmlns="http://www.w3.org/2000/svg">
<path d="M26.0867 3.80994H22.226C21.9618 3.80994 21.7371 4.00187 21.6959 4.26268L20.1344 14.1626C20.1034 14.3579 20.2547 14.534 20.4528 14.534H22.296C22.5601 14.534 22.7848 14.3421 22.826 14.0807L23.2472 11.4106C23.2878 11.1492 23.5131 10.9573 23.7767 10.9573H24.9989C27.542 10.9573 29.0097 9.72663 29.3931 7.28792C29.5658 6.22098 29.4004 5.38268 28.9008 4.79558C28.3521 4.1509 27.3789 3.80994 26.0867 3.80994ZM26.5321 7.42566C26.321 8.81099 25.2625 8.81098 24.239 8.81098H23.6564L24.0652 6.22381C24.0894 6.06744 24.2249 5.95228 24.383 5.95228H24.65C25.3472 5.95228 26.0048 5.95228 26.3447 6.34969C26.5473 6.58679 26.6094 6.93905 26.5321 7.42566Z" fill="#026259" fill-opacity="0.24"/>
<path d="M37.6271 7.38102H35.7784C35.6209 7.38102 35.4848 7.49619 35.4605 7.65256L35.3787 8.16965L35.2494 7.98223C34.8492 7.40135 33.9567 7.20715 33.0659 7.20715C31.0229 7.20715 29.278 8.75449 28.9381 10.9251C28.7614 12.0078 29.0126 13.0431 29.6268 13.7651C30.1902 14.429 30.9963 14.7056 31.9555 14.7056C33.6016 14.7056 34.5144 13.6472 34.5144 13.6472L34.432 14.1609C34.4009 14.3573 34.5522 14.5334 34.7492 14.5334H36.4146C36.6793 14.5334 36.9029 14.3415 36.9446 14.0801L37.9438 7.75248C37.9755 7.55772 37.8247 7.38102 37.6271 7.38102ZM35.0501 10.9792C34.8717 12.0355 34.0334 12.7445 32.9642 12.7445C32.4274 12.7445 31.9984 12.5723 31.7229 12.246C31.4497 11.922 31.3458 11.4608 31.4327 10.9471C31.5992 9.89989 32.4517 9.16772 33.5045 9.16772C34.0295 9.16772 34.4563 9.34215 34.7374 9.67127C35.0191 10.0038 35.1309 10.4678 35.0501 10.9792Z" fill="#026259" fill-opacity="0.24"/>
<path d="M47.4736 7.38098H45.6158C45.4385 7.38098 45.272 7.46905 45.1715 7.61638L42.6092 11.3907L41.523 7.76372C41.4547 7.53679 41.2453 7.38098 41.0082 7.38098H39.1826C38.9607 7.38098 38.8066 7.59776 38.8771 7.80663L40.9235 13.8119L38.9997 16.5278C38.8484 16.7418 39.0008 17.0359 39.2622 17.0359H41.1177C41.2938 17.0359 41.4587 16.9501 41.5586 16.8056L47.7378 7.88622C47.8857 7.67284 47.7338 7.38098 47.4736 7.38098Z" fill="#026259" fill-opacity="0.24"/>
<path d="M53.6248 3.80994H49.7635C49.4999 3.80994 49.2752 4.00187 49.234 4.26268L47.6725 14.1626C47.6415 14.3579 47.7928 14.534 47.9898 14.534H49.9712C50.1553 14.534 50.3128 14.3997 50.3415 14.2168L50.7847 11.4106C50.8253 11.1492 51.0506 10.9573 51.3142 10.9573H52.5358C55.0795 10.9573 56.5467 9.72663 56.9306 7.28792C57.1039 6.22098 56.9374 5.38268 56.4378 4.79558C55.8896 4.1509 54.9169 3.80994 53.6248 3.80994ZM54.0702 7.42566C53.8596 8.81099 52.8011 8.81098 51.7771 8.81098H51.1951L51.6044 6.22381C51.6286 6.06744 51.763 5.95228 51.9216 5.95228H52.1886C52.8853 5.95228 53.5435 5.95228 53.8833 6.34969C54.086 6.58679 54.1475 6.93905 54.0702 7.42566Z" fill="white"/>
<path d="M65.1643 7.38102H63.3166C63.158 7.38102 63.0231 7.49619 62.9994 7.65256L62.9175 8.16965L62.7877 7.98223C62.3874 7.40135 61.4955 7.20715 60.6047 7.20715C58.5617 7.20715 56.8174 8.75449 56.4775 10.9251C56.3014 12.0078 56.5515 13.0431 57.1657 13.7651C57.7302 14.429 58.5352 14.7056 59.4943 14.7056C61.1404 14.7056 62.0532 13.6472 62.0532 13.6472L61.9708 14.1609C61.9398 14.3573 62.0911 14.5334 62.2892 14.5334H63.954C64.2176 14.5334 64.4423 14.3415 64.4835 14.0801L65.4832 7.75248C65.5137 7.55772 65.3624 7.38102 65.1643 7.38102ZM62.5873 10.9792C62.41 12.0355 61.5706 12.7445 60.5014 12.7445C59.9657 12.7445 59.5355 12.5723 59.26 12.246C58.9868 11.922 58.884 11.4608 58.9699 10.9471C59.1375 9.89989 59.9888 9.16772 61.0416 9.16772C61.5666 9.16772 61.9934 9.34215 62.2745 9.67127C62.5574 10.0038 62.6691 10.4678 62.5873 10.9792Z" fill="white"/>
<path d="M67.344 4.08148L65.7594 14.1626C65.7284 14.3579 65.8797 14.5341 66.0767 14.5341H67.6697C67.9345 14.5341 68.1592 14.3421 68.1998 14.0808L69.7624 4.1814C69.7935 3.98608 69.6422 3.80939 69.4452 3.80939H67.6613C67.5038 3.80995 67.3683 3.92511 67.344 4.08148Z" fill="white"/>
<path d="M4.10194 16.4579L4.39719 14.5826L3.73952 14.5673H0.599121L2.78154 0.729354C2.78831 0.68758 2.81033 0.648628 2.84251 0.620967C2.87469 0.593306 2.9159 0.578064 2.9588 0.578064H8.25396C10.0119 0.578064 11.225 0.94387 11.8584 1.66589C12.1553 2.0046 12.3444 2.35855 12.4359 2.74806C12.5319 3.15677 12.5336 3.64508 12.4398 4.24064L12.4331 4.28411V4.66573L12.73 4.83395C12.9801 4.96661 13.1788 5.11847 13.3312 5.29234C13.5852 5.58193 13.7495 5.95 13.819 6.38637C13.8907 6.83516 13.8669 7.36919 13.7495 7.97379C13.614 8.66927 13.395 9.275 13.0992 9.77065C12.8271 10.2273 12.4805 10.6061 12.069 10.8997C11.6761 11.1785 11.2092 11.3902 10.6814 11.5257C10.1699 11.659 9.58678 11.7261 8.94719 11.7261H8.53509C8.24041 11.7261 7.9542 11.8323 7.72952 12.0225C7.50428 12.2167 7.35525 12.482 7.30952 12.7722L7.27848 12.941L6.75686 16.2462L6.73315 16.3676C6.72694 16.406 6.71622 16.4252 6.70041 16.4381C6.6863 16.45 6.66598 16.4579 6.64622 16.4579H4.10194Z" fill="#026259" fill-opacity="0.24"/>
<path d="M13.0107 4.32812C12.9949 4.42917 12.9768 4.53248 12.9565 4.63861C12.2582 8.22385 9.86919 9.4624 6.81798 9.4624H5.26443C4.89128 9.4624 4.57685 9.73337 4.5187 10.1014L3.7233 15.1459L3.49806 16.5759C3.46023 16.8175 3.64652 17.0354 3.8904 17.0354H6.6458C6.97209 17.0354 7.24927 16.7983 7.30064 16.4765L7.32773 16.3365L7.84652 13.0443L7.87983 12.8636C7.93064 12.5407 8.20838 12.3036 8.53467 12.3036H8.94677C11.6164 12.3036 13.7062 11.2197 14.317 8.08329C14.5722 6.77304 14.4401 5.67901 13.7649 4.90958C13.5606 4.67756 13.3071 4.48506 13.0107 4.32812Z" fill="white"/>
<path d="M12.2806 4.03684C12.1739 4.00579 12.0638 3.97756 11.9509 3.95216C11.8374 3.92732 11.7211 3.90531 11.6015 3.88611C11.1826 3.81837 10.7236 3.78619 10.2319 3.78619H6.08162C5.97945 3.78619 5.88235 3.80934 5.79541 3.85111C5.60404 3.94313 5.46179 4.12434 5.42735 4.34619L4.54445 9.93829L4.51904 10.1014C4.57719 9.73337 4.89162 9.4624 5.26477 9.4624H6.81832C9.86953 9.4624 12.2586 8.22329 12.9569 4.63861C12.9778 4.53248 12.9953 4.42918 13.0111 4.32813C12.8344 4.23442 12.643 4.15426 12.4369 4.08595C12.3861 4.06902 12.3336 4.05265 12.2806 4.03684Z" fill="#AAD5D1"/>
<path d="M5.42725 4.34621C5.46169 4.12435 5.60395 3.94315 5.79532 3.85169C5.88282 3.80992 5.97935 3.78677 6.08153 3.78677H10.2318C10.7235 3.78677 11.1825 3.81895 11.6014 3.88669C11.721 3.90589 11.8373 3.9279 11.9508 3.95274C12.0637 3.97815 12.1738 4.00637 12.2805 4.03742C12.3335 4.05323 12.386 4.0696 12.4374 4.08597C12.6435 4.15427 12.8348 4.235 13.0115 4.32815C13.2193 3.00323 13.0098 2.10113 12.2935 1.28427C11.5037 0.385 10.0783 0 8.25435 0H2.95919C2.58661 0 2.26878 0.270968 2.2112 0.639597L0.00563885 14.6198C-0.0378289 14.8965 0.175558 15.146 0.454429 15.146H3.72354L4.54435 9.93831L5.42725 4.34621Z" fill="#026259" fill-opacity="0.24"/>
</svg>
