<svg width="35" height="12" viewBox="0 0 35 12" fill="none" xmlns="http://www.w3.org/2000/svg">
<path fill-rule="evenodd" clip-rule="evenodd" d="M8.75037 11.0832H5.72134L3.44993 2.41768C3.34212 2.01907 3.11321 1.66667 2.77649 1.50058C1.93616 1.08319 1.01017 0.75101 0 0.583477V0.249854H4.87953C5.55298 0.249854 6.05806 0.75101 6.14224 1.33305L7.32077 7.58378L10.3483 0.249854H13.2932L8.75037 11.0832ZM14.9767 11.0832H12.116L14.4716 0.249854H17.3323L14.9767 11.0832ZM21.0334 3.25102C21.1176 2.66754 21.6227 2.33392 22.212 2.33392C23.1379 2.25015 24.1466 2.41768 24.9884 2.83363L25.4935 0.501157C24.6517 0.167534 23.7257 0 22.8854 0C20.1089 0 18.0886 1.50058 18.0886 3.5832C18.0886 5.16755 19.5197 5.99944 20.5298 6.50059C21.6227 7.00031 22.0436 7.33393 21.9594 7.83364C21.9594 8.58321 21.1176 8.91683 20.2773 8.91683C19.2671 8.91683 18.2569 8.66698 17.3324 8.24959L16.8273 10.5835C17.8375 10.9995 18.9304 11.167 19.9406 11.167C23.0538 11.2493 24.9884 9.75017 24.9884 7.50002C24.9884 4.66639 21.0334 4.5003 21.0334 3.25102ZM34.9998 11.0832L32.7284 0.249854H30.2886C29.7835 0.249854 29.2785 0.583477 29.1101 1.08319L24.904 11.0832H27.8489L28.4366 9.50031H32.0549L32.3917 11.0832H34.9998ZM30.7095 3.16726L31.5498 7.25017H29.1942L30.7095 3.16726Z" fill="#AAD5D1"/>
</svg>
